<svg width="19" height="19" viewBox="0 0 19 19" fill="none" xmlns="http://www.w3.org/2000/svg">
<g clip-path="url(#clip0_13_197)">
<path d="M19 9.5C19 4.25329 14.7467 0 9.5 0C4.25329 0 0 4.25329 0 9.5C0 14.7467 4.25329 19 9.5 19C14.7467 19 19 14.7467 19 9.5Z" fill="#4898FF"/>
<path d="M10.6818 10.5636V10.0909L16 10.6818V8.90909L10.6818 6.78182V4.77273C10.6818 3.59091 10.0909 3 9.5 3C8.90909 3 8.31818 3.59091 8.31818 4.77273V6.78182L3 8.90909V10.5636L8.31818 10.0909V10.5636V11.8636V13.9909L6.54545 14.8182V16L9.5 15.4091L12.4545 16V14.8182L10.6818 13.8727V11.8636V10.5636Z" fill="white"/>
</g>
<defs>
<clipPath id="clip0_13_197">
<rect width="19" height="19" fill="white"/>
</clipPath>
</defs>
</svg>
