<svg width="19" height="19" viewBox="0 0 19 19" fill="none" xmlns="http://www.w3.org/2000/svg">
<g clip-path="url(#clip0_13_33)">
<path d="M18 9.5C18 4.80558 14.1944 1 9.5 1C4.80558 1 1 4.80558 1 9.5C1 14.1944 4.80558 18 9.5 18C14.1944 18 18 14.1944 18 9.5Z" fill="white" stroke="white" stroke-width="2" stroke-linejoin="round"/>
<path d="M18 9.5C18 4.80558 14.1944 1 9.5 1C4.80558 1 1 4.80558 1 9.5C1 14.1944 4.80558 18 9.5 18C14.1944 18 18 14.1944 18 9.5Z" fill="#D97200"/>
<path d="M9.5 5C7.2 5 6.5 5.66 6.5 5.66V7.66C6.5328 8.5797 6.7577 9.4823 7.16 10.31C7.536 11.2746 7.536 12.3454 7.16 13.31C7.16 13.31 7.16 13.97 9.48 13.97C11.8 13.97 11.8 13.31 11.8 13.31C11.424 12.3454 11.424 11.2746 11.8 10.31C12.2023 9.4823 12.4272 8.5797 12.46 7.66V5.66C12.46 5.66 11.8 5 9.5 5ZM9.5 13.28C8.9736 13.3066 8.4465 13.2458 7.94 13.1C8.0726 12.6213 8.1399 12.1268 8.14 11.63H10.86C10.8456 11.8498 10.8456 12.0702 10.86 12.29C10.8939 12.5635 10.9474 12.8342 11.02 13.1C10.5269 13.2448 10.0136 13.309 9.5 13.29V13.28ZM11.82 7.28C10.3084 7.7225 8.7016 7.7225 7.19 7.28L7.18 6C8.6951 5.5578 10.3049 5.5578 11.82 6C11.82 6 11.85 7.33 11.82 7.33V7.28Z" fill="white"/>
</g>
<defs>
<clipPath id="clip0_13_33">
<rect width="19" height="19" fill="white"/>
</clipPath>
</defs>
</svg>
