<svg width="19" height="19" viewBox="0 0 19 19" fill="none" xmlns="http://www.w3.org/2000/svg">
<g clip-path="url(#clip0_46_88)">
<path d="M18 9.5C18 4.80558 14.1944 1 9.5 1C4.80558 1 1 4.80558 1 9.5C1 14.1944 4.80558 18 9.5 18C14.1944 18 18 14.1944 18 9.5Z" fill="white" stroke="white" stroke-width="2" stroke-linejoin="round"/>
<path d="M18 9.5C18 4.80558 14.1944 1 9.5 1C4.80558 1 1 4.80558 1 9.5C1 14.1944 4.80558 18 9.5 18C14.1944 18 18 14.1944 18 9.5Z" fill="#299091"/>
<path d="M12.21 6.99988L9.85 4.64988C9.6555 4.45378 9.339 4.45248 9.1429 4.64698L9.14 4.64988L6.79 6.99988H5.5C5.2239 6.99988 5 7.22378 5 7.49988V13.4999C5 13.776 5.2239 13.9999 5.5 13.9999H13.5C13.7761 13.9999 14 13.776 14 13.4999V7.49988C14 7.22378 13.7761 6.99988 13.5 6.99988H12.21ZM9.5 5.70988L10.79 6.99988H8.21L9.5 5.70988ZM13 12.9999H6V7.99988H13V12.9999ZM8.5 9.49988C8.5 9.77598 8.2761 9.99988 8 9.99988C7.7239 9.99988 7.5 9.77598 7.5 9.49988C7.5 9.22378 7.7239 8.99988 8 8.99988C8.2761 8.99988 8.5 9.22378 8.5 9.49988ZM12 11.9999H8L8.75 10.4999L9.25 11.4999L10.5 8.99988L12 11.9999Z" fill="white"/>
</g>
<defs>
<clipPath id="clip0_46_88">
<rect width="19" height="19" fill="white"/>
</clipPath>
</defs>
</svg>
