<svg width="23" height="23" viewBox="0 0 23 23" fill="none" xmlns="http://www.w3.org/2000/svg">
<g clip-path="url(#clip0_46_93)">
<path d="M22 11.5C22 5.70101 17.299 1 11.5 1C5.70101 1 1 5.70101 1 11.5C1 17.299 5.70101 22 11.5 22C17.299 22 22 17.299 22 11.5Z" fill="white" stroke="white" stroke-width="2" stroke-linejoin="round"/>
<path d="M22 11.5C22 5.70101 17.299 1 11.5 1C5.70101 1 1 5.70101 1 11.5C1 17.299 5.70101 22 11.5 22C17.299 22 22 17.299 22 11.5Z" fill="#676BDB"/>
<path d="M11.5109 12.0546C11.4853 12.1512 11.4313 12.2379 11.3559 12.3035C11.2805 12.3691 11.1871 12.4106 11.0879 12.4226C10.9089 12.4566 10.7219 12.4506 10.5399 12.4676C10.4929 12.4676 10.4089 12.4996 10.4089 12.5146C10.4149 12.6626 10.3829 12.8526 10.4609 12.9516C10.8219 13.4056 11.2139 13.8346 11.5979 14.2706C11.633 14.3134 11.6817 14.3427 11.7359 14.3536C11.8738 14.3616 12.0121 14.3616 12.1499 14.3536C12.2639 14.3536 12.2959 14.2896 12.2259 14.1956C12.1559 14.1016 12.0679 13.9956 11.9859 13.9016L11.1389 12.9016C11.3742 12.8876 11.5983 12.7964 11.7765 12.6422C11.9548 12.488 12.0772 12.2794 12.1249 12.0486C12.2142 12.0436 12.3037 12.0436 12.3929 12.0486C12.5539 12.0666 12.6139 12.0126 12.6119 11.8406C12.6099 11.6686 12.5589 11.6086 12.3939 11.6296C12.3255 11.6381 12.2563 11.6381 12.1879 11.6296C12.1534 11.6258 12.1218 11.6086 12.0999 11.5816C12.0569 11.4916 12.0259 11.3956 11.9849 11.2906C12.1449 11.2906 12.2849 11.2796 12.4319 11.2906C12.6069 11.3066 12.6079 11.2086 12.6099 11.0796C12.6119 10.9506 12.5939 10.8686 12.4259 10.8716C11.8569 10.8816 11.2879 10.8716 10.7189 10.8716C10.3619 10.8716 10.3999 10.8116 10.3939 11.2086C10.3939 11.3196 10.4319 11.3606 10.5439 11.3616C10.7276 11.3593 10.9113 11.368 11.0939 11.3876C11.1727 11.3909 11.2492 11.4152 11.3153 11.4581C11.3815 11.5011 11.4349 11.561 11.4699 11.6316C11.1549 11.6316 10.8609 11.6396 10.5699 11.6316C10.4109 11.6256 10.3899 11.7036 10.3959 11.8316C10.4019 11.9596 10.3779 12.0606 10.5629 12.0536C10.8649 12.0456 11.1749 12.0546 11.5109 12.0546ZM15.2999 8.68961V8.02061H7.70494V8.68961H8.45394V16.0346C8.45447 16.2641 8.54588 16.4841 8.70817 16.6464C8.87046 16.8087 9.09042 16.9001 9.31994 16.9006H13.6799C13.9095 16.9003 14.1297 16.809 14.292 16.6467C14.4544 16.4843 14.5457 16.2642 14.5459 16.0346V8.68961H15.2999ZM13.8779 16.0346C13.8779 16.0877 13.8569 16.1385 13.8194 16.176C13.7819 16.2135 13.731 16.2346 13.6779 16.2346H9.31994C9.2669 16.2346 9.21603 16.2135 9.17852 16.176C9.14101 16.1385 9.11994 16.0877 9.11994 16.0346V8.68961H13.8779V16.0346ZM16.8619 7.21161V9.49961C16.8614 9.79428 16.7441 10.0767 16.5356 10.285C16.3271 10.4932 16.0446 10.6103 15.7499 10.6106H14.9319V9.94261H15.7499C15.8675 9.94208 15.9802 9.89514 16.0633 9.81198C16.1465 9.72883 16.1934 9.6162 16.1939 9.49861V7.21161C16.1937 7.09393 16.1468 6.98115 16.0636 6.89795C15.9804 6.81474 15.8676 6.76787 15.7499 6.76761H7.24994C7.13226 6.76787 7.01948 6.81474 6.93628 6.89795C6.85307 6.98115 6.8062 7.09393 6.80594 7.21161V9.49961C6.80647 9.6172 6.85341 9.72983 6.93657 9.81298C7.01972 9.89614 7.13235 9.94308 7.24994 9.94361H8.02694V10.6116H7.24994C6.9551 10.6113 6.67241 10.4941 6.46393 10.2856C6.25545 10.0771 6.1382 9.79445 6.13794 9.49961V7.21161C6.13847 6.91685 6.25579 6.63432 6.46422 6.42589C6.67265 6.21746 6.95518 6.10014 7.24994 6.09961H15.7499C16.0447 6.10014 16.3272 6.21746 16.5357 6.42589C16.7441 6.63432 16.8614 6.91685 16.8619 7.21161Z" fill="white"/>
</g>
<defs>
<clipPath id="clip0_46_93">
<rect width="23" height="23" fill="white"/>
</clipPath>
</defs>
</svg>
