<svg width="19" height="19" viewBox="0 0 19 19" fill="none" xmlns="http://www.w3.org/2000/svg">
<g clip-path="url(#clip0_13_96)">
<path d="M18.174 9.50008C18.174 4.70961 14.2906 0.826172 9.50008 0.826172C4.70961 0.826172 0.826172 4.70961 0.826172 9.50008C0.826172 14.2906 4.70961 18.174 9.50008 18.174C14.2906 18.174 18.174 14.2906 18.174 9.50008Z" fill="white" stroke="white" stroke-width="2" stroke-linejoin="round"/>
<path d="M18.174 9.50008C18.174 4.70961 14.2906 0.826172 9.50008 0.826172C4.70961 0.826172 0.826172 4.70961 0.826172 9.50008C0.826172 14.2906 4.70961 18.174 9.50008 18.174C14.2906 18.174 18.174 14.2906 18.174 9.50008Z" fill="#676BDB"/>
<path d="M9.50884 9.95816C9.4877 10.038 9.44309 10.1096 9.3808 10.1638C9.31851 10.218 9.24136 10.2522 9.15941 10.2622C9.01154 10.2902 8.85706 10.2853 8.70671 10.2993C8.66789 10.2993 8.5985 10.3258 8.5985 10.3382C8.60345 10.4604 8.57702 10.6174 8.64145 10.6992C8.93967 11.0742 9.2635 11.4286 9.58071 11.7888C9.60971 11.8241 9.64994 11.8483 9.69471 11.8573C9.80863 11.8639 9.92288 11.8639 10.0367 11.8573C10.1309 11.8573 10.1573 11.8045 10.0995 11.7268C10.0417 11.6492 9.96898 11.5616 9.90124 11.4839L9.20154 10.6579C9.39592 10.6463 9.58104 10.5709 9.72825 10.4436C9.87554 10.3162 9.97666 10.1439 10.0161 9.9532C10.0898 9.94907 10.1638 9.94907 10.2375 9.9532C10.3705 9.96807 10.42 9.92346 10.4184 9.78138C10.4167 9.63929 10.3746 9.58972 10.2383 9.60707C10.1818 9.61409 10.1246 9.61409 10.0681 9.60707C10.0396 9.60393 10.0135 9.58972 9.99541 9.56742C9.95989 9.49307 9.93428 9.41377 9.90041 9.32703C10.0326 9.32703 10.1482 9.31794 10.2697 9.32703C10.4142 9.34024 10.4151 9.25929 10.4167 9.15272C10.4184 9.04616 10.4035 8.97842 10.2647 8.9809C9.79467 8.98916 9.32463 8.9809 8.85458 8.9809C8.55967 8.9809 8.59106 8.93133 8.58611 9.25929C8.58611 9.35098 8.6175 9.38485 8.71002 9.38568C8.86177 9.38378 9.01352 9.39097 9.16437 9.40716C9.22946 9.40988 9.29266 9.42996 9.34726 9.4654C9.40195 9.50092 9.44606 9.5504 9.47498 9.60872C9.21476 9.60872 8.97189 9.61533 8.7315 9.60872C8.60015 9.60377 8.5828 9.6682 8.58776 9.77394C8.59271 9.87968 8.57289 9.96311 8.72571 9.95733C8.97519 9.95072 9.23128 9.95816 9.50884 9.95816ZM12.6389 7.17838V6.62573H6.36479V7.17838H6.98353V13.246C6.98397 13.4356 7.05948 13.6173 7.19355 13.7514C7.32761 13.8855 7.50932 13.961 7.69892 13.9614H11.3006C11.4903 13.9611 11.6722 13.8857 11.8063 13.7516C11.9404 13.6175 12.0159 13.4357 12.016 13.246V7.17838H12.6389ZM11.4642 13.246C11.4642 13.2898 11.4468 13.3318 11.4159 13.3628C11.3849 13.3938 11.3428 13.4112 11.299 13.4112H7.69892C7.65511 13.4112 7.61308 13.3938 7.5821 13.3628C7.55111 13.3318 7.5337 13.2898 7.5337 13.246V7.17838H11.4642V13.246ZM13.9292 5.95743V7.84751C13.9288 8.09094 13.8319 8.32424 13.6597 8.49631C13.4874 8.66831 13.2541 8.76504 13.0106 8.76529H12.3349V8.21347H13.0106C13.1078 8.21303 13.2009 8.17426 13.2695 8.10556C13.3383 8.03687 13.377 7.94383 13.3774 7.84669V5.95743C13.3772 5.86021 13.3385 5.76705 13.2698 5.69832C13.201 5.62958 13.1079 5.59086 13.0106 5.59064H5.98892C5.89171 5.59086 5.79854 5.62958 5.72981 5.69832C5.66107 5.76705 5.62235 5.86021 5.62214 5.95743V7.84751C5.62258 7.94465 5.66135 8.0377 5.73005 8.10638C5.79874 8.17508 5.89178 8.21386 5.98892 8.2143H6.63079V8.76611H5.98892C5.74536 8.76587 5.51183 8.66905 5.33961 8.49681C5.16739 8.32457 5.07053 8.09108 5.07031 7.84751V5.95743C5.07075 5.71393 5.16767 5.48054 5.33985 5.30835C5.51203 5.13617 5.74542 5.03926 5.98892 5.03882H13.0106C13.2542 5.03926 13.4875 5.13617 13.6598 5.30835C13.8319 5.48054 13.9288 5.71393 13.9292 5.95743Z" fill="white"/>
</g>
<defs>
<clipPath id="clip0_13_96">
<rect width="19" height="19" fill="white"/>
</clipPath>
</defs>
</svg>
