<svg width="19" height="19" viewBox="0 0 19 19" fill="none" xmlns="http://www.w3.org/2000/svg">
<g clip-path="url(#clip0_13_183)">
<path d="M18.174 9.50008C18.174 4.70961 14.2906 0.826172 9.50008 0.826172C4.70961 0.826172 0.826172 4.70961 0.826172 9.50008C0.826172 14.2906 4.70961 18.174 9.50008 18.174C14.2906 18.174 18.174 14.2906 18.174 9.50008Z" fill="white" stroke="white" stroke-width="2" stroke-linejoin="round"/>
<path d="M18.174 9.50008C18.174 4.70961 14.2906 0.826172 9.50008 0.826172C4.70961 0.826172 0.826172 4.70961 0.826172 9.50008C0.826172 14.2906 4.70961 18.174 9.50008 18.174C14.2906 18.174 18.174 14.2906 18.174 9.50008Z" fill="#597FA6"/>
<path d="M10.0132 10.4152C9.62165 10.782 9.36722 10.782 8.98722 10.4152C8.94922 10.5242 8.91865 10.6366 8.87322 10.7456C8.72771 11.085 8.4756 11.3678 8.15505 11.5511C7.83451 11.7344 7.46296 11.8084 7.09665 11.7617C6.73034 11.715 6.38921 11.5503 6.12487 11.2924C5.86054 11.0346 5.6874 10.6976 5.63165 10.3326C5.59273 10.0992 5.60492 9.86018 5.66739 9.63198C5.72986 9.40378 5.84112 9.19186 5.99348 9.01085C6.21239 8.7432 6.44452 8.48546 6.67748 8.22937C6.87633 8.01484 7.13556 7.86564 7.42096 7.80146C7.45613 7.79212 7.48775 7.77257 7.51183 7.74529C7.58287 7.66268 7.6473 7.57429 7.71669 7.49085C7.82073 7.36151 7.96603 7.27182 8.12829 7.23678C8.29054 7.20175 8.4599 7.22349 8.60804 7.29837C8.75486 7.37231 8.87252 7.49353 8.94205 7.64248C9.01159 7.79144 9.02895 7.95947 8.99135 8.1195L8.97648 8.18642C8.93187 8.39624 8.93187 8.39624 9.05165 8.59202C9.09267 8.50933 9.15598 8.43973 9.23443 8.39107C9.31288 8.34242 9.40336 8.31664 9.49567 8.31664C9.58799 8.31664 9.67847 8.34242 9.75692 8.39107C9.83537 8.43973 9.89867 8.50933 9.93969 8.59202C9.97522 8.53255 10.0091 8.48216 10.0363 8.42681C10.0477 8.4026 10.0514 8.37553 10.0471 8.34916C10.033 8.26076 10.0116 8.16659 9.99587 8.07407C9.96824 7.91929 9.99165 7.75972 10.0626 7.6194C10.1335 7.47908 10.2481 7.36561 10.3891 7.29608C10.5302 7.22655 10.6899 7.20473 10.8444 7.2339C10.9989 7.26307 11.1398 7.34165 11.2457 7.45781C11.3283 7.55198 11.4043 7.65524 11.4861 7.75107C11.5065 7.77533 11.5339 7.79265 11.5646 7.80063C11.8886 7.873 12.1792 8.05116 12.3907 8.30702C12.5741 8.52263 12.7682 8.72916 12.9516 8.94476C13.1615 9.16912 13.3038 9.44812 13.3623 9.74972C13.4207 10.0513 13.3929 10.3633 13.282 10.6498C13.1865 10.9388 13.0122 11.1953 12.7786 11.3905C12.5451 11.5856 12.2616 11.7116 11.9603 11.7543C11.5467 11.8228 11.1224 11.736 10.769 11.5107C10.4155 11.2853 10.1578 10.9372 10.0454 10.5333L10.0132 10.4152ZM11.6786 11.2074C11.9025 11.2084 12.1217 11.1429 12.3084 11.0193C12.4951 10.8957 12.6409 10.7195 12.7274 10.513C12.8139 10.3065 12.8372 10.0789 12.7944 9.85915C12.7516 9.63938 12.6445 9.43726 12.4867 9.27836C12.329 9.11945 12.1277 9.01091 11.9082 8.96647C11.6888 8.92202 11.461 8.94367 11.2539 9.02868C11.0468 9.11368 10.8695 9.25822 10.7445 9.444C10.6195 9.62979 10.5525 9.84847 10.5518 10.0724C10.5513 10.2209 10.58 10.3681 10.6363 10.5055C10.6927 10.6429 10.7755 10.7679 10.8801 10.8733C10.9848 10.9787 11.1091 11.0624 11.2461 11.1198C11.3831 11.1771 11.5301 11.2069 11.6786 11.2074ZM7.31191 11.2074C7.53574 11.2076 7.75459 11.1414 7.94084 11.0173C8.12709 10.8932 8.27238 10.7166 8.35837 10.51C8.44436 10.3033 8.4672 10.0758 8.42399 9.85622C8.38078 9.63661 8.27347 9.43472 8.11561 9.27605C7.95775 9.11738 7.75641 9.00904 7.53702 8.96472C7.31763 8.92039 7.09002 8.94207 6.88294 9.027C6.67586 9.11194 6.49859 9.25633 6.37351 9.44195C6.24843 9.62756 6.18115 9.84607 6.18017 10.0699C6.1793 10.2191 6.20793 10.367 6.2644 10.5051C6.32088 10.6433 6.40409 10.7689 6.50926 10.8747C6.61442 10.9806 6.73947 11.0646 6.87722 11.122C7.01497 11.1794 7.16269 11.209 7.31191 11.2091V11.2074ZM9.49361 10.3532C9.54846 10.3542 9.60236 10.3389 9.64852 10.3093C9.69467 10.2796 9.73101 10.2369 9.75293 10.1867C9.77486 10.1364 9.78139 10.0807 9.77171 10.0267C9.76203 9.97273 9.73656 9.92281 9.69853 9.88328C9.66049 9.84375 9.6116 9.81637 9.55801 9.80461C9.50443 9.79285 9.44857 9.79723 9.39747 9.81719C9.34638 9.83716 9.30235 9.87182 9.27094 9.9168C9.23953 9.96177 9.22215 10.015 9.221 10.0699C9.22012 10.1064 9.2265 10.1428 9.23975 10.1769C9.25301 10.2109 9.27288 10.2421 9.29823 10.2684C9.32358 10.2947 9.3539 10.3158 9.38743 10.3304C9.42096 10.3449 9.45705 10.3527 9.49361 10.3532Z" fill="white"/>
</g>
<defs>
<clipPath id="clip0_13_183">
<rect width="19" height="19" fill="white"/>
</clipPath>
</defs>
</svg>
