<svg width="19" height="19" viewBox="0 0 19 19" fill="none" xmlns="http://www.w3.org/2000/svg">
<g clip-path="url(#clip0_13_324)">
<path d="M18.174 9.50008C18.174 4.70961 14.2906 0.826172 9.50008 0.826172C4.70961 0.826172 0.826172 4.70961 0.826172 9.50008C0.826172 14.2906 4.70961 18.174 9.50008 18.174C14.2906 18.174 18.174 14.2906 18.174 9.50008Z" fill="white" stroke="white" stroke-width="2" stroke-linejoin="round"/>
<path d="M18.174 9.50008C18.174 4.70961 14.2906 0.826172 9.50008 0.826172C4.70961 0.826172 0.826172 4.70961 0.826172 9.50008C0.826172 14.2906 4.70961 18.174 9.50008 18.174C14.2906 18.174 18.174 14.2906 18.174 9.50008Z" fill="#D97200"/>
<path d="M7.73832 9.12818C7.34265 9.49306 7.06845 9.97054 6.95271 10.4962C6.92617 10.6324 6.91125 10.7705 6.90811 10.9092C6.90315 11.034 6.9428 11.1686 7.09397 11.1389C7.13918 11.1193 7.17883 11.0888 7.20939 11.0502C7.23995 11.0116 7.26047 10.966 7.26911 10.9175C7.29038 10.4376 7.4698 9.97823 7.7794 9.61095C8.089 9.24368 8.51139 8.98913 8.98076 8.88696C9.21844 8.84861 9.4587 8.82845 9.69945 8.82666C9.43428 9.08027 9.16415 9.29918 8.94193 9.5594C8.64361 9.91197 8.46512 10.3503 8.43224 10.8109C8.41984 10.9497 8.4248 11.0901 8.60819 11.0984C8.77341 11.1058 8.79324 10.9794 8.80232 10.8448C8.84707 10.4012 9.03418 9.98392 9.33571 9.65545C9.63723 9.32698 10.037 9.10491 10.4751 9.02244C10.6543 8.99624 10.837 9.00806 11.0113 9.05714C11.346 9.16209 11.6692 9.30047 11.9761 9.47018C11.8407 9.49827 11.7027 9.51644 11.5705 9.55279C11.2325 9.66071 10.936 9.87047 10.7217 10.1534C10.5075 10.4362 10.3859 10.7784 10.3735 11.1331C10.3735 11.2661 10.381 11.3941 10.5487 11.4041C10.7164 11.414 10.7312 11.2942 10.7502 11.1711C10.8139 10.8418 10.9725 10.5383 11.2064 10.2981C11.4404 10.0578 11.7395 9.89118 12.067 9.81879C12.1986 9.78815 12.3362 9.79514 12.464 9.83896C12.5918 9.88278 12.7047 9.96167 12.7898 10.0666C12.9683 10.2488 13.104 10.4685 13.1868 10.7097C13.2697 10.951 13.2978 11.2076 13.269 11.4611C13.2579 11.6334 13.1995 11.7994 13.1002 11.9407C13.001 12.0821 12.8647 12.1934 12.7064 12.2624C12.3501 12.422 11.9711 12.5249 11.5829 12.5672C10.1106 12.6857 8.6308 12.6766 7.16006 12.5399C6.97981 12.5173 6.80254 12.4752 6.63137 12.4144C6.45644 12.3728 6.29299 12.2928 6.15297 12.18C6.01295 12.0672 5.8999 11.9246 5.82207 11.7625C5.74424 11.6004 5.7036 11.423 5.70313 11.2432C5.70265 11.0635 5.74235 10.8858 5.81932 10.7234C5.94423 10.3956 6.14861 10.1041 6.41411 9.87496C6.79993 9.53828 7.25058 9.28414 7.73832 9.12818Z" fill="white"/>
<path d="M8.28041 6.34937C8.34402 6.39397 8.41506 6.41958 8.43819 6.46832C8.45103 6.49694 8.45718 6.5281 8.45617 6.55945C8.45517 6.59079 8.44705 6.6215 8.43241 6.64923C8.16641 6.95902 8.26141 7.22006 8.49684 7.5001C8.62079 7.65041 8.68719 7.83993 8.68417 8.03473C8.68114 8.22953 8.60888 8.41689 8.48032 8.56328C8.44502 8.59766 8.402 8.6231 8.35487 8.63747C8.30773 8.65184 8.25784 8.65472 8.20936 8.64589C8.08215 8.58641 8.11271 8.45754 8.17797 8.34602C8.26516 8.24063 8.30766 8.10533 8.29639 7.96902C8.28512 7.83271 8.22098 7.70622 8.11767 7.61658C7.98403 7.46057 7.90955 7.26251 7.90728 7.0571C7.90501 6.85168 7.97511 6.65202 8.10528 6.4931C8.15927 6.44008 8.21788 6.39198 8.28041 6.34937Z" fill="white"/>
<path d="M9.61081 6.34937C9.67442 6.39397 9.74546 6.41958 9.76859 6.46832C9.78155 6.49694 9.78769 6.52816 9.78655 6.55955C9.7854 6.59094 9.77699 6.62164 9.76198 6.64923C9.49681 6.95902 9.59181 7.22006 9.82725 7.5001C9.95103 7.65049 10.0173 7.83997 10.0143 8.03473C10.0113 8.22948 9.93913 8.41682 9.81072 8.56328C9.77542 8.59766 9.73241 8.6231 9.68527 8.63747C9.63814 8.65184 9.58825 8.65472 9.53977 8.64589C9.41172 8.58641 9.44312 8.45754 9.50838 8.34602C9.59526 8.24045 9.63749 8.10512 9.62607 7.96888C9.61465 7.83263 9.55049 7.70622 9.44725 7.61658C9.3139 7.46043 9.23962 7.26242 9.23736 7.05709C9.23509 6.85176 9.30499 6.65216 9.43485 6.4931C9.48898 6.4399 9.54788 6.39179 9.61081 6.34937Z" fill="white"/>
<path d="M10.9401 6.34937C11.0037 6.39397 11.0747 6.41958 11.0978 6.46832C11.1109 6.49687 11.1172 6.52807 11.1162 6.55946C11.1152 6.59085 11.1069 6.62158 11.0921 6.64923C10.8261 6.95902 10.9211 7.22006 11.1573 7.5001C11.281 7.65058 11.3472 7.84012 11.344 8.03488C11.3408 8.22963 11.2685 8.41692 11.14 8.56328C11.1047 8.59766 11.0617 8.6231 11.0145 8.63747C10.9674 8.65184 10.9175 8.65472 10.869 8.64589C10.7393 8.58476 10.7732 8.45589 10.8385 8.34354C10.9253 8.23797 10.9676 8.10265 10.9561 7.9664C10.9447 7.83015 10.8806 7.70374 10.7773 7.6141C10.644 7.45795 10.5697 7.25994 10.5674 7.05461C10.5652 6.84929 10.6351 6.64968 10.7649 6.49063C10.819 6.43846 10.8776 6.39119 10.9401 6.34937Z" fill="white"/>
</g>
<defs>
<clipPath id="clip0_13_324">
<rect width="19" height="19" fill="white"/>
</clipPath>
</defs>
</svg>
