<svg width="19" height="19" viewBox="0 0 19 19" fill="none" xmlns="http://www.w3.org/2000/svg">
<g clip-path="url(#clip0_13_87)">
<path d="M18 9.5C18 4.80558 14.1944 1 9.5 1C4.80558 1 1 4.80558 1 9.5C1 14.1944 4.80558 18 9.5 18C14.1944 18 18 14.1944 18 9.5Z" fill="white" stroke="white" stroke-width="2" stroke-linejoin="round"/>
<path d="M18 9.5C18 4.80558 14.1944 1 9.5 1C4.80558 1 1 4.80558 1 9.5C1 14.1944 4.80558 18 9.5 18C14.1944 18 18 14.1944 18 9.5Z" fill="#676BDB"/>
<path d="M5 6C4 6 4 7 4 7V12C4 13 5 13 5 13H14C15 13 15 12 15 12V7C15 7 15 6 14 6H5ZM5 7H6.5C6.7761 7 7 7.2239 7 7.5C7 7.7761 6.7761 8 6.5 8C6.2239 8 6 7.7761 6 7.5L5.5 8C5.7761 8 6 8.2239 6 8.5C6 8.7761 5.7761 9 5.5 9C5.2239 9 5 8.7761 5 8.5V7ZM9.5 7C10.6046 7 11.5 8.1193 11.5 9.5C11.5 10.8807 10.6046 12 9.5 12C8.3954 12 7.5 10.8807 7.5 9.5C7.5 8.1193 8.3954 7 9.5 7ZM12.5 7H14V8.5C14 8.7761 13.7761 9 13.5 9C13.2239 9 13 8.7761 13 8.5C13 8.2239 13.2239 8 13.5 8L13 7.5C13 7.7761 12.7761 8 12.5 8C12.2239 8 12 7.7761 12 7.5C12 7.2239 12.2239 7 12.5 7ZM5.5 10C5.7761 10 6 10.2239 6 10.5C6 10.7761 5.7761 11 5.5 11L6 11.5C6 11.2239 6.2239 11 6.5 11C6.7761 11 7 11.2239 7 11.5C7 11.7761 6.7761 12 6.5 12H5V10.5C5 10.2239 5.2239 10 5.5 10ZM13.5 10C13.7761 10 14 10.2239 14 10.5V12H12.5C12.2239 12 12 11.7761 12 11.5C12 11.2239 12.2239 11 12.5 11C12.7761 11 13 11.2239 13 11.5L13.5 11C13.2239 11 13 10.7761 13 10.5C13 10.2239 13.2239 10 13.5 10Z" fill="white"/>
<path d="M8.9023 8.25C8.8261 8.321 8.7584 8.4051 8.7012 8.5H10.2989C10.2417 8.4051 10.1739 8.321 10.0977 8.25H8.9023ZM8.5859 8.75C8.5575 8.8303 8.5359 8.9141 8.5215 9H10.4805C10.4661 8.9141 10.4445 8.8303 10.416 8.75H8.5859ZM8.5 9.25C8.4998 9.3339 8.5063 9.4177 8.5195 9.5H10.4785C10.4924 9.4178 10.4996 9.334 10.5 9.25H8.5ZM8.5859 9.75C8.6171 9.8387 8.6564 9.9226 8.7031 10H10.2988C10.3448 9.9225 10.3835 9.8386 10.414 9.75H8.5859ZM8.9023 10.25C8.9132 10.2607 8.9243 10.2711 8.9355 10.2812L8.5 10.5H10.5L10.0645 10.2812C10.0757 10.2711 10.0868 10.2607 10.0977 10.25H8.9023ZM8.582 10.75C8.611 10.8289 8.638 10.9091 8.6914 11H10.3184C10.3708 10.909 10.3962 10.8289 10.4239 10.75H8.582ZM8.8926 11.25C9.0395 11.3915 9.2332 11.5 9.5 11.5C9.7739 11.5 9.9701 11.3915 10.1172 11.25H8.8926Z" fill="white"/>
</g>
<defs>
<clipPath id="clip0_13_87">
<rect width="19" height="19" fill="white"/>
</clipPath>
</defs>
</svg>
