<svg width="19" height="19" viewBox="0 0 19 19" fill="none" xmlns="http://www.w3.org/2000/svg">
<g clip-path="url(#clip0_13_258)">
<path d="M18 9.5C18 4.80558 14.1944 1 9.5 1C4.80558 1 1 4.80558 1 9.5C1 14.1944 4.80558 18 9.5 18C14.1944 18 18 14.1944 18 9.5Z" fill="white" stroke="white" stroke-width="2" stroke-linejoin="round"/>
<path d="M18 9.5C18 4.80558 14.1944 1 9.5 1C4.80558 1 1 4.80558 1 9.5C1 14.1944 4.80558 18 9.5 18C14.1944 18 18 14.1944 18 9.5Z" fill="#D97200"/>
<path d="M9.48814 5C8.97574 5 4.49984 5 4.99984 5.5L8.99984 10V12.5C8.99984 13 6.49984 13 6.49984 14H12.4998C12.4998 13 9.99984 13 9.99984 12.5V10L13.9998 5.5C14.4998 5 10.0004 5 9.48814 5ZM6.49984 6H12.4998L11.4998 7H7.49984L6.49984 6Z" fill="white"/>
</g>
<defs>
<clipPath id="clip0_13_258">
<rect width="19" height="19" fill="white"/>
</clipPath>
</defs>
</svg>
