<svg width="19" height="19" viewBox="0 0 19 19" fill="none" xmlns="http://www.w3.org/2000/svg">
<g clip-path="url(#clip0_22_2)">
<path d="M18 9.5C18 4.80558 14.1944 1 9.5 1C4.80558 1 1 4.80558 1 9.5C1 14.1944 4.80558 18 9.5 18C14.1944 18 18 14.1944 18 9.5Z" fill="white" stroke="white" stroke-width="2" stroke-linejoin="round"/>
<path d="M18 9.5C18 4.80558 14.1944 1 9.5 1C4.80558 1 1 4.80558 1 9.5C1 14.1944 4.80558 18 9.5 18C14.1944 18 18 14.1944 18 9.5Z" fill="#597FA6"/>
<path d="M12.1115 5.18001H10.6478C10.3833 5.18084 10.3932 5.57084 10.6478 5.56855H12.1115V5.76793H10.6478C10.3848 5.76563 10.3944 6.15543 10.6478 6.15647H12.1115V6.36022H10.6478C10.3848 6.36022 10.3944 6.7498 10.6478 6.74876H12.1115V6.94293H10.6478C10.3902 6.9448 10.3944 7.3348 10.6478 7.33606H12.1115V7.53064H10.6478C10.3902 7.5298 10.3892 7.91918 10.6478 7.91918H12.1115V8.11336H10.6478C10.3902 8.11419 10.3892 8.50398 10.6478 8.5021H12.1115V8.70107H10.6478C10.3902 8.69877 10.3892 9.08814 10.6478 9.08961H12.1115V9.28335H10.6478C10.3902 9.28315 10.3944 9.67337 10.6478 9.67211H12.1115V13.4552C12.1124 14.0318 12.9975 14.0213 13 13.4552V4.60209C12.9975 4.33875 12.7789 4.00583 12.4192 4.00479H10.6478C10.3833 4.005 10.3932 4.395 10.6478 4.39333L12.1115 4.39812V4.59188H10.6478C10.3837 4.59063 10.3936 4.98042 10.6478 4.98063H12.1115V5.18001ZM10.5471 11.8871C10.5463 11.2142 9.84125 10.4905 8.99892 10.9592V8.38543L8.45414 4.14062C8.44277 4.02833 8.34653 4.00188 8.28188 4C8.21513 4.00188 8.0814 4.02833 8.06688 4.14062L7.52483 8.38543V10.9592C6.6825 10.4905 6.00021 11.2188 6 11.8819C6.00021 12.4719 6.45928 12.9565 7.08051 12.9551C7.70635 12.9565 8.15658 12.4134 8.15658 11.8819V9.20836H8.36717V11.8819C8.36717 12.4769 8.83298 12.9173 9.3506 12.9452C9.34195 13.2715 9.44957 13.7369 9.65215 13.9215C9.88968 14.1382 10.1725 13.8611 10.0565 13.6354C9.94444 13.4254 9.83451 13.3011 9.9238 12.8425C10.2969 12.6718 10.5463 12.3121 10.5471 11.8871ZM7.10451 12.4165C6.96251 12.4165 6.82633 12.3606 6.72592 12.2613C6.62551 12.162 6.5691 12.0273 6.5691 11.8868C6.5691 11.7463 6.62551 11.6116 6.72592 11.5123C6.82633 11.4129 6.96251 11.3571 7.10451 11.3571C7.39638 11.3588 7.63413 11.5957 7.63623 11.8871C7.63574 12.0268 7.57967 12.1606 7.48015 12.2598C7.38063 12.3588 7.24569 12.4151 7.10451 12.4165ZM8.90942 11.8871C8.90991 11.7473 8.96599 11.6134 9.06553 11.5142C9.16507 11.415 9.30008 11.3586 9.44135 11.3571C9.58263 11.3585 9.71769 11.4149 9.81722 11.5141C9.91676 11.6133 9.97274 11.7473 9.97307 11.8871C9.97286 12.0269 9.91687 12.1609 9.8173 12.26C9.71772 12.3592 9.58261 12.4154 9.44135 12.4165C9.30014 12.4152 9.16513 12.3589 9.06557 12.2598C8.96602 12.1608 8.90991 12.0269 8.90942 11.8871Z" fill="white"/>
</g>
<defs>
<clipPath id="clip0_22_2">
<rect width="19" height="19" fill="white"/>
</clipPath>
</defs>
</svg>
