<svg width="19" height="19" viewBox="0 0 19 19" fill="none" xmlns="http://www.w3.org/2000/svg">
<g clip-path="url(#clip0_13_347)">
<path d="M18.174 9.50008C18.174 4.70961 14.2906 0.826172 9.50008 0.826172C4.70961 0.826172 0.826172 4.70961 0.826172 9.50008C0.826172 14.2906 4.70961 18.174 9.50008 18.174C14.2906 18.174 18.174 14.2906 18.174 9.50008Z" fill="white" stroke="white" stroke-width="2" stroke-linejoin="round"/>
<path d="M18.174 9.50008C18.174 4.70961 14.2906 0.826172 9.50008 0.826172C4.70961 0.826172 0.826172 4.70961 0.826172 9.50008C0.826172 14.2906 4.70961 18.174 9.50008 18.174C14.2906 18.174 18.174 14.2906 18.174 9.50008Z" fill="#597FA6"/>
<path d="M10.0734 7.125H8.61867C8.60429 7.12519 8.59008 7.12184 8.5773 7.11524C8.56452 7.10864 8.55357 7.099 8.5454 7.08715C8.53724 7.07531 8.53211 7.06164 8.53048 7.04735C8.52886 7.03306 8.53077 7.01859 8.53607 7.00522L8.83263 6.27082C8.83867 6.25403 8.84998 6.23965 8.86487 6.22982C8.87976 6.21999 8.89743 6.21525 8.91524 6.2163L9.76694 6.22374C9.78439 6.22341 9.80154 6.22825 9.81625 6.23766C9.83095 6.24707 9.84253 6.26062 9.84954 6.27661L10.156 7.00356C10.1617 7.01702 10.1639 7.03167 10.1624 7.04619C10.161 7.06071 10.1559 7.07464 10.1477 7.0867C10.1395 7.09877 10.1284 7.10859 10.1154 7.11528C10.1024 7.12197 10.088 7.12531 10.0734 7.125ZM9.3415 5.20435L9.1102 5.78261H9.58272L9.3415 5.20435ZM7.91237 9.12826C7.48528 9.22491 5.52333 9.87174 5.39941 13.699C5.39941 13.8204 5.46963 13.9245 5.5605 13.9245L13.1299 13.9617C13.2192 13.9617 13.2952 13.8692 13.2952 13.7502C13.3001 12.9522 13.1572 10.122 10.9111 9.17865C10.8275 9.14412 10.738 9.12617 10.6475 9.12578L8.05611 9.11339C8.00779 9.11302 7.95959 9.118 7.91237 9.12826ZM10.7442 8.44095L10.3989 7.61487C10.392 7.59873 10.3805 7.585 10.3658 7.57544C10.3511 7.56588 10.3338 7.56091 10.3163 7.56117H8.36259C8.3449 7.56075 8.32751 7.56575 8.31274 7.57549C8.29798 7.58524 8.28655 7.59927 8.27998 7.61569L7.94541 8.44178C7.9399 8.45515 7.93782 8.46968 7.93935 8.48406C7.94088 8.49843 7.94599 8.5122 7.95419 8.5241C7.9624 8.53601 7.97346 8.54567 7.98635 8.55221C7.99924 8.55875 8.01357 8.56197 8.02802 8.56156H10.6641C10.6788 8.56281 10.6936 8.56006 10.7069 8.55362C10.7203 8.54719 10.7316 8.53729 10.7398 8.52496C10.748 8.51263 10.7527 8.49834 10.7535 8.48356C10.7543 8.46878 10.7511 8.45407 10.7442 8.44095Z" fill="white"/>
</g>
<defs>
<clipPath id="clip0_13_347">
<rect width="19" height="19" fill="white"/>
</clipPath>
</defs>
</svg>
