<svg width="19" height="19" viewBox="0 0 19 19" fill="none" xmlns="http://www.w3.org/2000/svg">
<g clip-path="url(#clip0_13_273)">
<path d="M19 9.5C19 4.25329 14.7467 0 9.5 0C4.25329 0 0 4.25329 0 9.5C0 14.7467 4.25329 19 9.5 19C14.7467 19 19 14.7467 19 9.5Z" fill="#4898FF"/>
<path d="M7 4C6 4 5 4.5312 5 6V10V13.5C5 13.5 5 14 5.5 14L6 14.0156V14.5C6 14.5 6 15 6.5 15H7C7 15 7.5 15 7.5 14.5V14.0156L11.5 14V14.5C11.5 14.5 11.5 15 12 15H12.5C13 15 13 14.5 13 14.5V14.0156L13.5 14C13.5 14 14 14 14 13.5V10V6C14 4.5 13 4 12 4H7ZM7.75 5H11.25C11.3885 5 11.5 5.1115 11.5 5.25C11.5 5.3885 11.3885 5.5 11.25 5.5H7.75C7.6115 5.5 7.5 5.3885 7.5 5.25C7.5 5.1115 7.6115 5 7.75 5ZM7 6H12C13 6 13 7 13 7V9C13 9 13 10 12 10H7C6 10 6 9 6 9V7C6 7 6 6 7 6ZM6.75 11.5C7.1642 11.5 7.5 11.8358 7.5 12.25C7.5 12.6642 7.1642 13 6.75 13C6.3358 13 6 12.6642 6 12.25C6 11.8358 6.3358 11.5 6.75 11.5ZM12.25 11.5C12.6642 11.5 13 11.8358 13 12.25C13 12.6642 12.6642 13 12.25 13C11.8358 13 11.5 12.6642 11.5 12.25C11.5 11.8358 11.8358 11.5 12.25 11.5Z" fill="white"/>
</g>
<defs>
<clipPath id="clip0_13_273">
<rect width="19" height="19" fill="white"/>
</clipPath>
</defs>
</svg>
