<svg width="19" height="19" viewBox="0 0 19 19" fill="none" xmlns="http://www.w3.org/2000/svg">
<g clip-path="url(#clip0_13_332)">
<path d="M18 9.5C18 4.80558 14.1944 1 9.5 1C4.80558 1 1 4.80558 1 9.5C1 14.1944 4.80558 18 9.5 18C14.1944 18 18 14.1944 18 9.5Z" fill="white" stroke="white" stroke-width="2" stroke-linejoin="round"/>
<path d="M18 9.5C18 4.80558 14.1944 1 9.5 1C4.80558 1 1 4.80558 1 9.5C1 14.1944 4.80558 18 9.5 18C14.1944 18 18 14.1944 18 9.5Z" fill="#D97200"/>
<path d="M11.625 13.4375C11.625 13.7481 11.3731 14 11.0625 14H6.5625C6.25189 14 6 13.7481 6 13.4375C6 13.1269 6.25189 12.875 6.5625 12.875H11.0625C11.3731 12.875 11.625 13.1269 11.625 13.4375ZM12.75 6.125H11.625V5H6V9.5C6.0018 11.0533 7.26248 12.311 8.81576 12.3092C9.93165 12.3079 10.9411 11.6471 11.3888 10.625H12.75C13.9927 10.625 15 9.61767 15 8.375C15 7.13233 13.9927 6.125 12.75 6.125ZM12.75 9.5H11.625V7.25H12.75C13.3713 7.25 13.875 7.75366 13.875 8.375C13.875 8.99634 13.3713 9.5 12.75 9.5Z" fill="white"/>
</g>
<defs>
<clipPath id="clip0_13_332">
<rect width="19" height="19" fill="white"/>
</clipPath>
</defs>
</svg>
