<svg width="19" height="19" viewBox="0 0 19 19" fill="none" xmlns="http://www.w3.org/2000/svg">
<g clip-path="url(#clip0_13_169)">
<path d="M18 9.5C18 4.80558 14.1944 1 9.5 1C4.80558 1 1 4.80558 1 9.5C1 14.1944 4.80558 18 9.5 18C14.1944 18 18 14.1944 18 9.5Z" fill="white" stroke="white" stroke-width="2" stroke-linejoin="round"/>
<path d="M18 9.5C18 4.80558 14.1944 1 9.5 1C4.80558 1 1 4.80558 1 9.5C1 14.1944 4.80558 18 9.5 18C14.1944 18 18 14.1944 18 9.5Z" fill="#598017"/>
<path d="M9.92011 5.18981C9.77461 4.95511 9.46641 4.88271 9.23171 5.02821C9.16611 5.06891 9.11081 5.12421 9.07011 5.18981L5.50011 10.9998H4.50011C4.27251 10.9553 4.05181 11.1038 4.00731 11.3314C4.00351 11.3507 4.00111 11.3702 4.00011 11.3898V12.4998C3.99451 12.7704 4.20931 12.9942 4.47991 12.9998C4.48661 12.9999 4.49341 12.9999 4.50011 12.9998H14.5001C14.7707 13.0054 14.9945 12.7906 15.0001 12.52C15.0002 12.5133 15.0002 12.5065 15.0001 12.4998V11.3898C14.9878 11.1582 14.7901 10.9803 14.5585 10.9926C14.5389 10.9936 14.5194 10.996 14.5001 10.9998H13.5001L9.92011 5.18981ZM9.50011 5.99981L12.5001 10.9998H6.50011L9.50011 5.99981Z" fill="white"/>
</g>
<defs>
<clipPath id="clip0_13_169">
<rect width="19" height="19" fill="white"/>
</clipPath>
</defs>
</svg>
