<svg width="19" height="19" viewBox="0 0 19 19" fill="none" xmlns="http://www.w3.org/2000/svg">
<g clip-path="url(#clip0_46_104)">
<path d="M18 9.5C18 4.80558 14.1944 1 9.5 1C4.80558 1 1 4.80558 1 9.5C1 14.1944 4.80558 18 9.5 18C14.1944 18 18 14.1944 18 9.5Z" fill="white" stroke="white" stroke-width="2" stroke-linejoin="round"/>
<path d="M18 9.5C18 4.80558 14.1944 1 9.5 1C4.80558 1 1 4.80558 1 9.5C1 14.1944 4.80558 18 9.5 18C14.1944 18 18 14.1944 18 9.5Z" fill="#598017"/>
<path d="M9.92011 6.18981C9.77461 5.95511 9.46641 5.88271 9.23171 6.02821C9.16611 6.06891 9.11081 6.12421 9.07011 6.18981L5.50011 11.9998H4.50011C4.27251 11.9553 4.05181 12.1038 4.00731 12.3314C4.00351 12.3507 4.00111 12.3702 4.00011 12.3898V13.4998C3.99451 13.7704 4.20931 13.9942 4.47991 13.9998C4.48661 13.9999 4.49341 13.9999 4.50011 13.9998H14.5001C14.7707 14.0054 14.9945 13.7906 15.0001 13.52C15.0002 13.5133 15.0002 13.5065 15.0001 13.4998V12.3898C14.9878 12.1582 14.7901 11.9803 14.5585 11.9926C14.5389 11.9936 14.5194 11.996 14.5001 11.9998H13.5001L9.92011 6.18981ZM9.50011 6.99981L12.5001 11.9998H6.50011L9.50011 6.99981Z" fill="white"/>
</g>
<defs>
<clipPath id="clip0_46_104">
<rect width="19" height="19" fill="white"/>
</clipPath>
</defs>
</svg>
