<svg width="19" height="19" viewBox="0 0 19 19" fill="none" xmlns="http://www.w3.org/2000/svg">
<g clip-path="url(#clip0_13_221)">
<path d="M19 9.5C19 4.25329 14.7467 0 9.5 0C4.25329 0 0 4.25329 0 9.5C0 14.7467 4.25329 19 9.5 19C14.7467 19 19 14.7467 19 9.5Z" fill="#4898FF"/>
<path d="M13.9331 7.60005L12.8058 4.23072C12.7194 3.97498 12.4804 3.80208 12.2105 3.80005H6.78914C6.51921 3.80208 6.28019 3.97498 6.1938 4.23072L5.06647 7.60005C4.36689 7.60005 3.7998 8.16714 3.7998 8.86672V12.6667H5.06647V13.9334C5.06647 14.633 5.63356 15.2 6.33314 15.2C7.03272 15.2 7.5998 14.633 7.5998 13.9334V12.6667H11.3998V13.9334C11.3998 14.633 11.9669 15.2 12.6665 15.2C13.3661 15.2 13.9331 14.633 13.9331 13.9334V12.6667H15.1998V8.86672C15.1998 8.16714 14.6327 7.60005 13.9331 7.60005ZM6.33314 11.4C5.63356 11.4 5.06647 10.833 5.06647 10.1334C5.06647 9.4338 5.63356 8.86672 6.33314 8.86672C7.03272 8.86672 7.5998 9.4338 7.5998 10.1334C7.5998 10.833 7.03272 11.4 6.33314 11.4ZM6.33314 7.60005L7.11847 5.06672H11.8811L12.6665 7.60005H6.33314ZM12.6665 11.4C11.9669 11.4 11.3998 10.833 11.3998 10.1334C11.3998 9.4338 11.9669 8.86672 12.6665 8.86672C13.3661 8.86672 13.9331 9.4338 13.9331 10.1334C13.9331 10.833 13.3661 11.4 12.6665 11.4Z" fill="white"/>
</g>
<defs>
<clipPath id="clip0_13_221">
<rect width="19" height="19" fill="white"/>
</clipPath>
</defs>
</svg>
