<svg width="19" height="19" viewBox="0 0 19 19" fill="none" xmlns="http://www.w3.org/2000/svg">
<g clip-path="url(#clip0_13_292)">
<path d="M18 9.5C18 4.80558 14.1944 1 9.5 1C4.80558 1 1 4.80558 1 9.5C1 14.1944 4.80558 18 9.5 18C14.1944 18 18 14.1944 18 9.5Z" fill="white" stroke="white" stroke-width="2" stroke-linejoin="round"/>
<path d="M18 9.5C18 4.80558 14.1944 1 9.5 1C4.80558 1 1 4.80558 1 9.5C1 14.1944 4.80558 18 9.5 18C14.1944 18 18 14.1944 18 9.5Z" fill="#597FA6"/>
<path d="M12.6698 4.81002V6.29002C12.681 6.67092 12.3813 6.98882 12.0004 7.00002C12.0002 7.00002 12.0006 7.00002 12.0004 7.00002H7.0898C6.7088 7.00562 6.3954 6.70122 6.3898 6.32012C6.3897 6.31342 6.3897 6.30672 6.3898 6.30002V4.81002C6.3898 4.61952 6.5443 4.46502 6.7348 4.46502C6.9253 4.46502 7.0798 4.61952 7.0798 4.81002V5.50002H7.9998V5.00002C7.9998 4.72392 8.2237 4.50002 8.4998 4.50002C8.7759 4.50002 8.9998 4.72392 8.9998 5.00002V5.50002H9.9998V5.00002C9.9998 4.72392 10.2237 4.50002 10.4998 4.50002C10.7759 4.50002 10.9998 4.72392 10.9998 5.00002V5.50002H11.9998V4.81002C11.9677 4.62502 12.0917 4.44902 12.2767 4.41692C12.4617 4.38482 12.6377 4.50882 12.6698 4.69382C12.6765 4.73232 12.6765 4.77162 12.6698 4.81002ZM14.0598 13.63C14.0598 13.8233 13.9031 13.98 13.7098 13.98H5.3498C5.1565 13.9799 4.9999 13.8231 5 13.6298C5.0002 13.4366 5.1567 13.2801 5.3498 13.28H5.6998C6.0752 13.2912 6.3886 12.996 6.3998 12.6206C6.4002 12.6071 6.4002 12.5935 6.3998 12.58C6.3998 12.58 7.0998 9.38002 7.0998 8.69002C7.0942 8.31452 7.3941 8.00562 7.7697 8.00002C7.7764 7.99992 7.7831 7.99992 7.7898 8.00002H11.2698C11.6452 7.98882 11.9586 8.28402 11.9698 8.65942C11.9702 8.67292 11.9702 8.68652 11.9698 8.70002C11.9698 9.40002 12.6698 12.59 12.6698 12.59C12.6586 12.9654 12.9538 13.2788 13.3292 13.29C13.3427 13.2904 13.3563 13.2904 13.3698 13.29H13.7098C13.9031 13.29 14.0598 13.4467 14.0598 13.64V13.63ZM10.4998 11.5C10.4998 10.9477 10.0521 10.5 9.4998 10.5C8.9475 10.5 8.4998 10.9477 8.4998 11.5V13.5H10.4998V11.5Z" fill="white"/>
</g>
<defs>
<clipPath id="clip0_13_292">
<rect width="19" height="19" fill="white"/>
</clipPath>
</defs>
</svg>
