<svg width="19" height="19" viewBox="0 0 19 19" fill="none" xmlns="http://www.w3.org/2000/svg">
<g clip-path="url(#clip0_13_263)">
<path d="M18 9.5C18 4.80558 14.1944 1 9.5 1C4.80558 1 1 4.80558 1 9.5C1 14.1944 4.80558 18 9.5 18C14.1944 18 18 14.1944 18 9.5Z" fill="white" stroke="white" stroke-width="2" stroke-linejoin="round"/>
<path d="M18 9.5C18 4.80558 14.1944 1 9.5 1C4.80558 1 1 4.80558 1 9.5C1 14.1944 4.80558 18 9.5 18C14.1944 18 18 14.1944 18 9.5Z" fill="#299091"/>
<path d="M9.5 4C7.56761 4 6 5.48294 6 7.312V13H13V7.312C13 5.48294 11.4336 4 9.5 4Z" fill="white"/>
<line x1="4.5" y1="13.5" x2="14.5" y2="13.5" stroke="white" stroke-linecap="round"/>
</g>
<defs>
<clipPath id="clip0_13_263">
<rect width="19" height="19" fill="white"/>
</clipPath>
</defs>
</svg>
