<svg width="19" height="19" viewBox="0 0 19 19" fill="none" xmlns="http://www.w3.org/2000/svg">
<g clip-path="url(#clip0_22_7)">
<path d="M18 9.5C18 4.80558 14.1944 1 9.5 1C4.80558 1 1 4.80558 1 9.5C1 14.1944 4.80558 18 9.5 18C14.1944 18 18 14.1944 18 9.5Z" fill="white" stroke="white" stroke-width="2" stroke-linejoin="round"/>
<path d="M18 9.5C18 4.80558 14.1944 1 9.5 1C4.80558 1 1 4.80558 1 9.5C1 14.1944 4.80558 18 9.5 18C14.1944 18 18 14.1944 18 9.5Z" fill="#4898FF"/>
<path d="M6.9 5C6.20136 5 5.63333 5.49701 5.63333 6.10833V12.7583C5.28302 12.7583 5 13.006 5 13.3125C5 13.619 5.28302 13.8667 5.63333 13.8667H11.3333C11.6836 13.8667 11.9667 13.619 11.9667 13.3125C11.9667 13.006 11.6836 12.7583 11.3333 12.7583V10.2646H11.65C12.0874 10.2646 12.4417 10.5746 12.4417 10.9573V11.5115C12.4417 12.2007 13.0789 12.7583 13.8667 12.7583C14.6544 12.7583 15.2917 12.2007 15.2917 11.5115V9.36925C15.9349 9.19262 16.4 8.66789 16.4 8.04792V7.49375C16.4 7.34136 16.2575 7.21667 16.0833 7.21667H15.7667V6.38542C15.7667 6.23302 15.6242 6.10833 15.45 6.10833C15.2758 6.10833 15.1333 6.23302 15.1333 6.38542V7.21667H14.5V6.38542C14.5 6.23302 14.3575 6.10833 14.1833 6.10833C14.0092 6.10833 13.8667 6.23302 13.8667 6.38542V7.21667H13.55C13.3758 7.21667 13.2333 7.34136 13.2333 7.49375V8.04792C13.2333 8.66789 13.6985 9.19262 14.3417 9.36925V11.5115C14.3417 11.7418 14.1299 11.9271 13.8667 11.9271C13.6035 11.9271 13.3917 11.7418 13.3917 11.5115V10.9573C13.3917 10.1156 12.6119 9.43333 11.65 9.43333H11.3333V6.10833C11.3333 5.49701 10.7653 5 10.0667 5H6.9ZM9.29281 6.43217C9.41156 6.50144 9.46104 6.63133 9.4175 6.74909L8.9227 8.04618H10.0667C10.1993 8.04618 10.318 8.11891 10.3635 8.22629C10.4091 8.33366 10.3734 8.45662 10.2725 8.53281L8.05583 10.1953C7.94698 10.2767 7.79063 10.2836 7.67386 10.2144C7.55708 10.1451 7.50563 10.0152 7.54917 9.89745L8.04396 8.60035L6.9 8.60208C6.76739 8.60208 6.64864 8.52935 6.60312 8.42198C6.55761 8.31461 6.59323 8.19166 6.69417 8.11546L8.91083 6.45296C9.01969 6.37156 9.17604 6.36463 9.29281 6.4339V6.43217Z" fill="white"/>
</g>
<defs>
<clipPath id="clip0_22_7">
<rect width="19" height="19" fill="white"/>
</clipPath>
</defs>
</svg>
