<svg width="19" height="19" viewBox="0 0 19 19" fill="none" xmlns="http://www.w3.org/2000/svg">
<g clip-path="url(#clip0_46_109)">
<path d="M18 9.5C18 4.80558 14.1944 1 9.5 1C4.80558 1 1 4.80558 1 9.5C1 14.1944 4.80558 18 9.5 18C14.1944 18 18 14.1944 18 9.5Z" fill="white" stroke="white" stroke-width="2" stroke-linejoin="round"/>
<path d="M18 9.5C18 4.80558 14.1944 1 9.5 1C4.80558 1 1 4.80558 1 9.5C1 14.1944 4.80558 18 9.5 18C14.1944 18 18 14.1944 18 9.5Z" fill="#299091"/>
<path d="M14 9.5V11.5C14 11.7761 13.7761 12 13.5 12C13.2239 12 13 11.7761 13 11.5C12.9427 11.2478 12.7433 11.0523 12.49 11H12V12.63C12 12.8343 11.8343 13 11.63 13H5.37C5.1657 13 5 12.8343 5 12.63V9.37C5 9.1657 5.1657 9 5.37 9H11.63C11.8343 9 12 9.1657 12 9.37V10H12.49C12.7433 9.9477 12.9427 9.7522 13 9.5C13 9.2239 13.2239 9 13.5 9C13.7761 9 14 9.2239 14 9.5ZM6.5 6C5.6716 6 5 6.6716 5 7.5C5 8.3284 5.6716 9 6.5 9C7.3284 9 8 8.3284 8 7.5C8 6.6716 7.3284 6 6.5 6ZM6.5 8C6.2239 8 6 7.7761 6 7.5C6 7.2239 6.2239 7 6.5 7C6.7761 7 7 7.2239 7 7.5C7 7.7761 6.7761 8 6.5 8ZM10 5C8.8954 5 8 5.8954 8 7C8 8.1046 8.8954 9 10 9C11.1046 9 12 8.1046 12 7C12 5.8954 11.1046 5 10 5ZM10 8C9.4477 8 9 7.5523 9 7C9 6.4477 9.4477 6 10 6C10.5523 6 11 6.4477 11 7C11 7.5523 10.5523 8 10 8Z" fill="white"/>
</g>
<defs>
<clipPath id="clip0_46_109">
<rect width="19" height="19" fill="white"/>
</clipPath>
</defs>
</svg>
