<svg width="19" height="19" viewBox="0 0 19 19" fill="none" xmlns="http://www.w3.org/2000/svg">
<g clip-path="url(#clip0_13_38)">
<path d="M18.174 9.50008C18.174 4.70961 14.2906 0.826172 9.50008 0.826172C4.70961 0.826172 0.826172 4.70961 0.826172 9.50008C0.826172 14.2906 4.70961 18.174 9.50008 18.174C14.2906 18.174 18.174 14.2906 18.174 9.50008Z" fill="white" stroke="white" stroke-width="2" stroke-linejoin="round"/>
<path d="M18.174 9.50008C18.174 4.70961 14.2906 0.826172 9.50008 0.826172C4.70961 0.826172 0.826172 4.70961 0.826172 9.50008C0.826172 14.2906 4.70961 18.174 9.50008 18.174C14.2906 18.174 18.174 14.2906 18.174 9.50008Z" fill="#BA272A"/>
<path d="M9.6533 7.93938C9.6533 7.67916 9.6533 7.41895 9.6533 7.15873C9.65054 7.0622 9.64199 6.96593 9.62769 6.87042C9.62668 6.78857 9.59845 6.70938 9.54744 6.64536C9.49643 6.58134 9.42555 6.53612 9.34599 6.51686C9.23951 6.4796 9.1416 6.42132 9.05809 6.34547C8.97457 6.26963 8.90715 6.17777 8.85984 6.07536C8.81253 5.97295 8.78628 5.86207 8.78266 5.74931C8.77904 5.63656 8.79812 5.52422 8.83878 5.41899C8.91589 5.2101 9.07046 5.03891 9.27041 4.94094C9.47036 4.84296 9.70036 4.82571 9.91269 4.89277C10.128 4.96347 10.3074 5.11485 10.4134 5.31511C10.5194 5.51538 10.5436 5.74893 10.481 5.96668C10.4652 6.02935 10.4689 6.09539 10.4918 6.15586C10.6241 6.47452 10.6923 6.81615 10.6925 7.16121C10.6925 7.66512 10.6925 8.16903 10.6925 8.67295C10.7029 9.2558 10.5156 9.82499 10.1612 10.2878C9.80667 10.7506 9.30591 11.0797 8.74047 11.2214C8.64795 11.2462 8.6273 11.2859 8.62399 11.3751C8.60585 11.5934 8.63174 11.8132 8.70014 12.0214C8.76854 12.2296 8.87804 12.4219 9.02217 12.5869C9.23086 12.8202 9.50493 12.9853 9.80872 13.0608C10.1125 13.1362 10.432 13.1185 10.7256 13.0099C11.0211 12.9013 11.276 12.7044 11.4557 12.4459C11.6355 12.1875 11.7312 11.8799 11.7301 11.5651C11.7301 11.5395 11.7301 11.5139 11.7301 11.4891C11.7541 11.382 11.7419 11.2699 11.6954 11.1705C11.6489 11.0711 11.5708 10.9899 11.4732 10.9397C11.248 10.7847 11.0827 10.5574 11.0045 10.2955C10.9264 10.0336 10.9402 9.75286 11.0436 9.49986C11.1404 9.24307 11.3184 9.02488 11.5505 8.87844C11.7826 8.73201 12.0562 8.66531 12.3296 8.68849C12.6031 8.71167 12.8615 8.82345 13.0656 9.00686C13.2698 9.19028 13.4085 9.4353 13.4607 9.70473C13.5105 9.95571 13.4817 10.2159 13.3782 10.4499C13.2748 10.684 13.1016 10.8804 12.8825 11.0124C12.8459 11.0306 12.8158 11.0596 12.7964 11.0956C12.7771 11.1315 12.7693 11.1726 12.7743 11.2132C12.7989 11.6111 12.7513 12.0102 12.6338 12.3912C12.4438 12.9488 12.0694 13.4251 11.5725 13.7414C11.0755 14.0578 10.4855 14.1954 9.89986 14.1315C9.31421 14.0676 8.7678 13.806 8.35071 13.39C7.93362 12.9739 7.67075 12.4281 7.60543 11.8426C7.58879 11.6882 7.58327 11.5328 7.58891 11.3776C7.58891 11.2768 7.55256 11.2446 7.46251 11.2189C7.02966 11.1124 6.63263 10.8934 6.31161 10.5842C5.99058 10.2749 5.75696 9.88631 5.63438 9.45773C5.56417 9.22023 5.52665 8.97427 5.52286 8.72664C5.50717 8.18968 5.5146 7.65273 5.52286 7.11495C5.52433 6.77772 5.5946 6.44433 5.72938 6.13521C5.74998 6.08249 5.75288 6.0245 5.73765 5.96999C5.7051 5.86102 5.69434 5.7467 5.70597 5.63357C5.7176 5.52044 5.75141 5.41071 5.80545 5.31064C5.85949 5.21058 5.93271 5.12213 6.02094 5.05036C6.10916 4.97859 6.21065 4.9249 6.31962 4.89236C6.42859 4.85981 6.54291 4.84905 6.65604 4.86069C6.76917 4.87232 6.8789 4.90612 6.97897 4.96016C7.07904 5.01421 7.16748 5.08743 7.23925 5.17565C7.31102 5.26387 7.36471 5.36537 7.39725 5.47434C7.42969 5.58335 7.44006 5.69775 7.42774 5.81082C7.41542 5.92389 7.38066 6.03337 7.3255 6.13284C7.27034 6.23231 7.19589 6.31977 7.10651 6.39011C7.01712 6.46045 6.9146 6.51225 6.80495 6.54247C6.75618 6.55002 6.71128 6.57347 6.67722 6.60917C6.64316 6.64488 6.62185 6.69084 6.6166 6.7399C6.58977 6.86701 6.57265 6.99598 6.56538 7.12568C6.5596 7.65934 6.56043 8.19216 6.56538 8.72582C6.56765 9.09892 6.70467 9.45865 6.95119 9.73872C7.19772 10.0188 7.53714 10.2003 7.90695 10.2499C8.28505 10.3039 8.66965 10.2144 8.98515 9.99921C9.30066 9.78398 9.52426 9.45853 9.61199 9.08682C9.63765 8.96343 9.65093 8.83779 9.65164 8.71177C9.65743 8.45155 9.6533 8.19547 9.6533 7.93938Z" fill="white"/>
</g>
<defs>
<clipPath id="clip0_13_38">
<rect width="19" height="19" fill="white"/>
</clipPath>
</defs>
</svg>
