<svg width="19" height="19" viewBox="0 0 19 19" fill="none" xmlns="http://www.w3.org/2000/svg">
<g clip-path="url(#clip0_46_114)">
<path d="M18 9.5C18 4.80558 14.1944 1 9.5 1C4.80558 1 1 4.80558 1 9.5C1 14.1944 4.80558 18 9.5 18C14.1944 18 18 14.1944 18 9.5Z" fill="white" stroke="white" stroke-width="2" stroke-linejoin="round"/>
<path d="M18 9.5C18 4.80558 14.1944 1 9.5 1C4.80558 1 1 4.80558 1 9.5C1 14.1944 4.80558 18 9.5 18C14.1944 18 18 14.1944 18 9.5Z" fill="#1B78F2"/>
<path d="M6.5 5L4.5 7V9H6.5V14H12.5V9H14.5V7L12.5 5H11L9.5 8L8 5H6.5Z" fill="white"/>
</g>
<defs>
<clipPath id="clip0_46_114">
<rect width="19" height="19" fill="white"/>
</clipPath>
</defs>
</svg>
