<svg width="19" height="19" viewBox="0 0 19 19" fill="none" xmlns="http://www.w3.org/2000/svg">
<g clip-path="url(#clip0_13_177)">
<path d="M18 9.5C18 4.80558 14.1944 1 9.5 1C4.80558 1 1 4.80558 1 9.5C1 14.1944 4.80558 18 9.5 18C14.1944 18 18 14.1944 18 9.5Z" fill="white" stroke="white" stroke-width="2" stroke-linejoin="round"/>
<path d="M18 9.5C18 4.80558 14.1944 1 9.5 1C4.80558 1 1 4.80558 1 9.5C1 14.1944 4.80558 18 9.5 18C14.1944 18 18 14.1944 18 9.5Z" fill="#875C1B"/>
<path d="M6 11.3C6.3 11.1 6.5 10.8 6.5 10.5C6.5 10.1 6.3 9.8 5.9 9.6V8.4L9.5 10L15 7.5L9.5 5L4 7.5L5.2 8V9.6C4.8 9.8 4.6 10.1 4.6 10.5C4.6 10.8 4.8 11.1 5.1 11.3L4.6 13C4.3 14 5.1 14 5.1 14H6.1C6.1 14 6.9 14 6.6 13L6 11.3Z" fill="white"/>
<path d="M7.49961 10.2C7.49961 10.3 7.49961 10.4 7.49961 10.5C7.49961 10.9 7.29961 11.3 7.09961 11.6C7.29961 12 7.49961 12.4 7.49961 13V13.6C7.99961 13.8 8.69961 14 9.49961 14C11.9996 14 12.9996 12.5 12.9996 12.5V9.5L9.49961 11.1L7.49961 10.2Z" fill="white"/>
</g>
<defs>
<clipPath id="clip0_13_177">
<rect width="19" height="19" fill="white"/>
</clipPath>
</defs>
</svg>
