<svg width="19" height="19" viewBox="0 0 19 19" fill="none" xmlns="http://www.w3.org/2000/svg">
<g clip-path="url(#clip0_13_357)">
<path d="M18 9.5C18 4.80558 14.1944 1 9.5 1C4.80558 1 1 4.80558 1 9.5C1 14.1944 4.80558 18 9.5 18C14.1944 18 18 14.1944 18 9.5Z" fill="white" stroke="white" stroke-width="2" stroke-linejoin="round"/>
<path d="M18 9.5C18 4.80558 14.1944 1 9.5 1C4.80558 1 1 4.80558 1 9.5C1 14.1944 4.80558 18 9.5 18C14.1944 18 18 14.1944 18 9.5Z" fill="#BA272A"/>
<path d="M9.47962 10C8.85662 10.0823 8.30842 10.4527 7.99962 11C7.53962 12.21 7.85962 14 7.17962 14C6.49962 14 6.69962 12.49 6.49962 11C6.28602 10.3547 6.03222 9.72354 5.73962 9.11004C5.52962 7.70004 4.99962 5.28004 6.66962 5.00004C8.33962 4.72004 8.34962 6.52004 9.49962 6.52004C10.6496 6.52004 10.6696 4.72004 12.3296 5.00004C13.9896 5.28004 13.4696 7.70004 13.2596 9.11004C12.967 9.72354 12.7132 10.3547 12.4996 11C12.2996 12.49 12.4996 14 11.8196 14C11.1396 14 11.4596 12.21 10.9996 11C10.6908 10.4527 10.1426 10.0823 9.51962 10H9.47962Z" fill="white"/>
</g>
<defs>
<clipPath id="clip0_13_357">
<rect width="19" height="19" fill="white"/>
</clipPath>
</defs>
</svg>
