<svg width="19" height="19" viewBox="0 0 19 19" fill="none" xmlns="http://www.w3.org/2000/svg">
<g clip-path="url(#clip0_13_145)">
<path d="M18 9.5C18 4.80558 14.1944 1 9.5 1C4.80558 1 1 4.80558 1 9.5C1 14.1944 4.80558 18 9.5 18C14.1944 18 18 14.1944 18 9.5Z" fill="white" stroke="white" stroke-width="2" stroke-linejoin="round"/>
<path d="M18 9.5C18 4.80558 14.1944 1 9.5 1C4.80558 1 1 4.80558 1 9.5C1 14.1944 4.80558 18 9.5 18C14.1944 18 18 14.1944 18 9.5Z" fill="#F0438B"/>
<path d="M9.5 6C8.6014 6.0766 7.7537 6.4494 7.09 7.06C7.0316 7.1262 6.9995 7.2117 7 7.3V10.62C6.9889 10.8074 7.1318 10.9684 7.3193 10.9796C7.4115 10.985 7.5021 10.9527 7.57 10.89C8.1239 10.4637 8.8011 10.2286 9.5 10.22C10.61 10.22 10.85 11 12 11C12.6869 10.9329 13.3313 10.6371 13.83 10.16C13.9401 10.0917 14.0051 9.9695 14 9.84V6.37C14.0309 6.1792 13.9013 5.9995 13.7104 5.9686C13.6387 5.9569 13.5652 5.9679 13.5 6C13.0686 6.3529 12.5507 6.5842 12 6.67C10.85 6.67 10.65 6 9.5 6ZM5.5 5.5C6.0523 5.5 6.5 5.9477 6.5 6.5C6.5 7.0523 6.0523 7.5 5.5 7.5C4.9477 7.5 4.5 7.0523 4.5 6.5C4.5 5.9477 4.9477 5.5 5.5 5.5ZM6 8.5V14.5C6 14.7761 5.7761 15 5.5 15C5.2239 15 5 14.7761 5 14.5V8.5C5 8.2239 5.2239 8 5.5 8C5.7761 8 6 8.2239 6 8.5Z" fill="white"/>
</g>
<defs>
<clipPath id="clip0_13_145">
<rect width="19" height="19" fill="white"/>
</clipPath>
</defs>
</svg>
