<svg width="19" height="19" viewBox="0 0 19 19" fill="none" xmlns="http://www.w3.org/2000/svg">
<g clip-path="url(#clip0_13_287)">
<path d="M18 9.5C18 4.80558 14.1944 1 9.5 1C4.80558 1 1 4.80558 1 9.5C1 14.1944 4.80558 18 9.5 18C14.1944 18 18 14.1944 18 9.5Z" fill="white" stroke="white" stroke-width="2" stroke-linejoin="round"/>
<path d="M18 9.5C18 4.80558 14.1944 1 9.5 1C4.80558 1 1 4.80558 1 9.5C1 14.1944 4.80558 18 9.5 18C14.1944 18 18 14.1944 18 9.5Z" fill="#D97200"/>
<path d="M14 12C14 13.1046 13.1046 14 12 14H7C5.8954 14 5 13.1046 5 12H14ZM14 9H5C4.4477 9 4 9.4477 4 10C4 10.5523 4.4477 11 5 11H14C14.5523 11 15 10.5523 15 10C15 9.4477 14.5523 9 14 9ZM12.55 5H6.46C5.6537 5 5 5.6536 5 6.46C5 6.4633 5 6.4667 5 6.47V8H14V6.47C14.0055 5.6637 13.3564 5.0055 12.55 5ZM7.55 7C7.2752 7.0276 7.0301 6.8273 7.0025 6.5525C6.9749 6.2777 7.1753 6.0326 7.45 6.005C7.7248 5.9774 7.9699 6.1777 7.9975 6.4525C7.9991 6.4683 7.9999 6.4841 8 6.5C8 6.7761 7.7761 7 7.5 7H7.55ZM11.55 7C11.2752 7.0276 11.0301 6.8273 11.0025 6.5525C10.9749 6.2777 11.1753 6.0326 11.45 6.005C11.7248 5.9774 11.9699 6.1777 11.9975 6.4525C11.9991 6.4683 11.9999 6.4841 12 6.5C12 6.7761 11.7761 7 11.5 7H11.55Z" fill="white"/>
</g>
<defs>
<clipPath id="clip0_13_287">
<rect width="19" height="19" fill="white"/>
</clipPath>
</defs>
</svg>
