<svg width="19" height="19" viewBox="0 0 19 19" fill="none" xmlns="http://www.w3.org/2000/svg">
<g clip-path="url(#clip0_22_12)">
<path d="M18 9.5C18 4.80558 14.1944 1 9.5 1C4.80558 1 1 4.80558 1 9.5C1 14.1944 4.80558 18 9.5 18C14.1944 18 18 14.1944 18 9.5Z" fill="white" stroke="white" stroke-width="2" stroke-linejoin="round"/>
<path d="M18 9.5C18 4.80558 14.1944 1 9.5 1C4.80558 1 1 4.80558 1 9.5C1 14.1944 4.80558 18 9.5 18C14.1944 18 18 14.1944 18 9.5Z" fill="#4898FF"/>
<path d="M13.5 7H13V5.5C13 5.2239 12.7761 5 12.5 5C12.2239 5 12 5.2239 12 5.5V7C12 7.5523 12.4477 8 13 8V12.25C13 12.3881 12.8881 12.5 12.75 12.5C12.6119 12.5 12.5 12.3881 12.5 12.25V10.5C12.5 9.6716 11.8284 9 11 9V6C11 5.4477 10.5523 5 10 5H6C5.4477 5 5 5.4477 5 6V13C5 13.5523 5.4477 14 6 14H10C10.5523 14 11 13.5523 11 13V10C11.2761 10 11.5 10.2239 11.5 10.5V12.25C11.5 12.9404 12.0596 13.5 12.75 13.5C13.4404 13.5 14 12.9404 14 12.25V7.5C14 7.2239 13.7761 7 13.5 7ZM10 8.5C10.0056 8.7706 9.7908 8.9944 9.5202 9H6.52C6.2384 9.0056 6.0056 8.7818 6 8.5002V7C6 6.7239 6.2239 6.5 6.5 6.5H9.5C9.7761 6.5 10 6.7239 10 7V8.5Z" fill="white"/>
</g>
<defs>
<clipPath id="clip0_22_12">
<rect width="19" height="19" fill="white"/>
</clipPath>
</defs>
</svg>
