<svg width="19" height="19" viewBox="0 0 19 19" fill="none" xmlns="http://www.w3.org/2000/svg">
<g clip-path="url(#clip0_13_137)">
<path d="M18.174 9.50008C18.174 4.70961 14.2906 0.826172 9.50008 0.826172C4.70961 0.826172 0.826172 4.70961 0.826172 9.50008C0.826172 14.2906 4.70961 18.174 9.50008 18.174C14.2906 18.174 18.174 14.2906 18.174 9.50008Z" fill="white" stroke="white" stroke-width="2" stroke-linejoin="round"/>
<path d="M18.174 9.50008C18.174 4.70961 14.2906 0.826172 9.50008 0.826172C4.70961 0.826172 0.826172 4.70961 0.826172 9.50008C0.826172 14.2906 4.70961 18.174 9.50008 18.174C14.2906 18.174 18.174 14.2906 18.174 9.50008Z" fill="#299091"/>
<path d="M13.5977 13.5003V10.0076H11.4003V13.5003H13.5977ZM12.1826 10.951H12.4973C12.5389 10.951 12.5788 10.9675 12.6082 10.997C12.6377 11.0264 12.6543 11.0663 12.6543 11.108C12.6543 11.1496 12.6377 11.1895 12.6082 11.2189C12.5788 11.2484 12.5389 11.2649 12.4973 11.2649H12.1826C12.1409 11.2649 12.101 11.2484 12.0715 11.2189C12.0421 11.1895 12.0256 11.1496 12.0256 11.108C12.0256 11.0663 12.0421 11.0264 12.0715 10.997C12.101 10.9675 12.1409 10.951 12.1826 10.951ZM4.63623 13.8159H14.6988V14.1306H4.63623V13.8159ZM7.94058 13.5003V10.0076H5.73658V13.5003H7.94058ZM6.83693 10.951H7.15166C7.19329 10.951 7.23322 10.9675 7.26265 10.997C7.29208 11.0264 7.30862 11.0663 7.30862 11.108C7.30862 11.1496 7.29208 11.1895 7.26265 11.2189C7.23322 11.2484 7.19329 11.2649 7.15166 11.2649H6.83693C6.7953 11.2649 6.75537 11.2484 6.72594 11.2189C6.69651 11.1895 6.67997 11.1496 6.67997 11.108C6.67997 11.0663 6.69651 11.0264 6.72594 10.997C6.75537 10.9675 6.7953 10.951 6.83693 10.951ZM7.62336 6.11344C7.62336 6.07174 7.63987 6.03173 7.66928 6.00217C7.69869 5.9726 7.73862 5.95588 7.78032 5.95566H8.09588C8.13758 5.95588 8.17751 5.9726 8.20692 6.00217C8.23633 6.03173 8.25284 6.07174 8.25284 6.11344H11.0822C11.0822 6.07174 11.0987 6.03173 11.1281 6.00217C11.1576 5.9726 11.1975 5.95588 11.2392 5.95566H11.5539C11.5956 5.95588 11.6355 5.9726 11.6649 6.00217C11.6944 6.03173 11.7109 6.07174 11.7109 6.11344H12.812V4.6967C12.8135 4.67604 12.811 4.65527 12.8044 4.63561C12.7979 4.61593 12.7877 4.59773 12.7741 4.58204C12.7606 4.56636 12.7441 4.55348 12.7256 4.54417C12.707 4.53486 12.6869 4.52929 12.6662 4.52777C12.6455 4.52625 12.6248 4.52882 12.6051 4.53533C12.5855 4.54183 12.5672 4.55215 12.5516 4.56569C12.5199 4.59303 12.5004 4.63184 12.4973 4.67357C12.4965 4.68126 12.4965 4.68902 12.4973 4.6967V5.1684H6.83693V4.6967C6.83367 4.65939 6.81726 4.62445 6.7906 4.59814C6.76395 4.57182 6.72881 4.55585 6.69146 4.55306C6.6541 4.55028 6.61699 4.56088 6.58673 4.58296C6.55648 4.60503 6.53507 4.63716 6.52632 4.67357C6.52549 4.68126 6.52549 4.68902 6.52632 4.6967V6.11344H7.62336ZM14.0437 6.50088C14.0296 6.47804 14.0099 6.45918 13.9865 6.44603C13.9631 6.43287 13.9368 6.42589 13.9099 6.4257H5.42184C5.38006 6.42614 5.34014 6.44304 5.31076 6.47274C5.28136 6.50244 5.26488 6.54254 5.26488 6.58431C5.26497 6.60841 5.27062 6.63216 5.2814 6.6537L5.73658 7.5624V9.72759H7.93727V9.09894C7.93771 8.72365 8.08691 8.36389 8.35217 8.0985C8.61742 7.83307 8.9771 7.68367 9.35239 7.68301H9.98187C10.3577 7.68279 10.7182 7.83182 10.9842 8.09733C11.2502 8.36281 11.3998 8.72307 11.4003 9.09894V9.72759H13.5977V7.56405L14.0537 6.65536C14.0655 6.63097 14.0709 6.60389 14.0692 6.5768C14.0674 6.54972 14.0586 6.52355 14.0437 6.50088ZM7.15166 7.99857H6.83693C6.79716 7.99569 6.75996 7.97786 6.73281 7.94867C6.70564 7.91947 6.69055 7.88108 6.69055 7.8412C6.69055 7.80134 6.70564 7.76294 6.73281 7.73375C6.75996 7.70455 6.79716 7.68672 6.83693 7.68383H7.15166C7.19143 7.68672 7.22863 7.70455 7.25579 7.73375C7.28295 7.76294 7.29804 7.80134 7.29804 7.8412C7.29804 7.88108 7.28295 7.91947 7.25579 7.94867C7.22863 7.97786 7.19143 7.99569 7.15166 7.99857ZM12.1826 7.68383H12.4973C12.537 7.68672 12.5742 7.70455 12.6014 7.73375C12.6286 7.76294 12.6437 7.80134 12.6437 7.8412C12.6437 7.88108 12.6286 7.91947 12.6014 7.94867C12.5742 7.97786 12.537 7.99569 12.4973 7.99857H12.1826C12.1428 7.99569 12.1056 7.97786 12.0784 7.94867C12.0512 7.91947 12.0362 7.88108 12.0362 7.8412C12.0362 7.80134 12.0512 7.76294 12.0784 7.73375C12.1056 7.70455 12.1428 7.68672 12.1826 7.68383ZM12.1826 9.41368H12.0256C11.9858 9.41079 11.9486 9.39294 11.9214 9.36378C11.8943 9.33454 11.8792 9.29612 11.8792 9.25631C11.8792 9.21641 11.8943 9.17799 11.9214 9.14883C11.9486 9.11967 11.9858 9.10183 12.0256 9.09894H12.1826C12.2243 9.09588 12.2655 9.10951 12.2972 9.13685C12.3289 9.1642 12.3484 9.20302 12.3515 9.24474C12.3546 9.28646 12.3409 9.32768 12.3136 9.3594C12.2862 9.39104 12.2474 9.41062 12.2057 9.41368C12.1981 9.41591 12.1903 9.41723 12.1826 9.41781V9.41368ZM12.812 9.41368H12.6543C12.6144 9.41079 12.5773 9.39294 12.5501 9.36378C12.5229 9.33454 12.5079 9.29612 12.5079 9.25631C12.5079 9.21641 12.5229 9.17799 12.5501 9.14883C12.5773 9.11967 12.6144 9.10183 12.6543 9.09894H12.812C12.8518 9.10183 12.889 9.11967 12.9161 9.14883C12.9433 9.17799 12.9583 9.21641 12.9583 9.25631C12.9583 9.29612 12.9433 9.33454 12.9161 9.36378C12.889 9.39294 12.8518 9.41079 12.812 9.41368Z" fill="white"/>
</g>
<defs>
<clipPath id="clip0_13_137">
<rect width="19" height="19" fill="white"/>
</clipPath>
</defs>
</svg>
