<svg width="23" height="23" viewBox="0 0 23 23" fill="none" xmlns="http://www.w3.org/2000/svg">
<g clip-path="url(#clip0_46_124)">
<path d="M22 11.5C22 5.70101 17.299 1 11.5 1C5.70101 1 1 5.70101 1 11.5C1 17.299 5.70101 22 11.5 22C17.299 22 22 17.299 22 11.5Z" fill="white" stroke="white" stroke-width="2" stroke-linejoin="round"/>
<path d="M22 11.5C22 5.70101 17.299 1 11.5 1C5.70101 1 1 5.70101 1 11.5C1 17.299 5.70101 22 11.5 22C17.299 22 22 17.299 22 11.5Z" fill="#299091"/>
<path d="M16.4601 16.3425V12.1145H13.8001V16.3425H16.4601ZM14.7471 13.2565H15.1281C15.1785 13.2565 15.2268 13.2765 15.2624 13.3121C15.298 13.3478 15.3181 13.3961 15.3181 13.4465C15.3181 13.4969 15.298 13.5452 15.2624 13.5808C15.2268 13.6165 15.1785 13.6365 15.1281 13.6365H14.7471C14.6967 13.6365 14.6483 13.6165 14.6127 13.5808C14.5771 13.5452 14.5571 13.4969 14.5571 13.4465C14.5571 13.3961 14.5771 13.3478 14.6127 13.3121C14.6483 13.2765 14.6967 13.2565 14.7471 13.2565ZM5.61206 16.7245H17.7931V17.1055H5.61206V16.7245ZM9.61206 16.3425V12.1145H6.94406V16.3425H9.61206ZM8.27606 13.2565H8.65706C8.70745 13.2565 8.75578 13.2765 8.79141 13.3121C8.82704 13.3478 8.84706 13.3961 8.84706 13.4465C8.84706 13.4969 8.82704 13.5452 8.79141 13.5808C8.75578 13.6165 8.70745 13.6365 8.65706 13.6365H8.27606C8.22567 13.6365 8.17734 13.6165 8.14171 13.5808C8.10608 13.5452 8.08606 13.4969 8.08606 13.4465C8.08606 13.3961 8.10608 13.3478 8.14171 13.3121C8.17734 13.2765 8.22567 13.2565 8.27606 13.2565ZM9.22806 7.40048C9.22806 7.35 9.24805 7.30157 9.28365 7.26578C9.31925 7.22999 9.36758 7.20975 9.41806 7.20948H9.80006C9.85054 7.20975 9.89887 7.22999 9.93447 7.26578C9.97008 7.30157 9.99006 7.35 9.99006 7.40048H13.4151C13.4151 7.35 13.435 7.30157 13.4706 7.26578C13.5063 7.22999 13.5546 7.20975 13.6051 7.20948H13.9861C14.0365 7.20975 14.0849 7.22999 14.1205 7.26578C14.1561 7.30157 14.1761 7.35 14.1761 7.40048H15.5091V5.68548C15.5109 5.66047 15.5078 5.63533 15.4999 5.61152C15.492 5.5877 15.4796 5.56567 15.4632 5.54668C15.4468 5.52769 15.4268 5.51211 15.4044 5.50084C15.382 5.48957 15.3576 5.48282 15.3326 5.48098C15.3075 5.47914 15.2824 5.48225 15.2586 5.49013C15.2348 5.498 15.2127 5.51049 15.1938 5.52688C15.1554 5.55998 15.1318 5.60696 15.1281 5.65748C15.1271 5.66679 15.1271 5.67618 15.1281 5.68548V6.25648H8.27606V5.68548C8.27212 5.64031 8.25225 5.59802 8.21998 5.56617C8.18772 5.53431 8.14518 5.51497 8.09997 5.5116C8.05475 5.50823 8.00982 5.52106 7.97319 5.54779C7.93657 5.57451 7.91065 5.6134 7.90006 5.65748C7.89906 5.66679 7.89906 5.67618 7.90006 5.68548V7.40048H9.22806ZM17.0001 7.86948C16.983 7.84184 16.9591 7.819 16.9308 7.80308C16.9025 7.78716 16.8706 7.7787 16.8381 7.77848H6.56306C6.51249 7.77901 6.46416 7.79947 6.42859 7.83542C6.39301 7.87137 6.37306 7.91991 6.37306 7.97048C6.37316 7.99965 6.38 8.0284 6.39306 8.05448L6.94406 9.15448V11.7755H9.60806V11.0145C9.60859 10.5602 9.7892 10.1247 10.1103 9.80344C10.4314 9.48214 10.8668 9.30128 11.3211 9.30048H12.0831C12.538 9.30022 12.9744 9.48062 13.2964 9.80203C13.6184 10.1234 13.7995 10.5595 13.8001 11.0145V11.7755H16.4601V9.15648L17.0121 8.05648C17.0265 8.02696 17.033 7.99418 17.0309 7.96139C17.0288 7.9286 17.0181 7.89692 17.0001 7.86948ZM8.65706 9.68248H8.27606C8.22792 9.67899 8.18289 9.65741 8.15002 9.62207C8.11714 9.58672 8.09887 9.54025 8.09887 9.49198C8.09887 9.44372 8.11714 9.39724 8.15002 9.3619C8.18289 9.32656 8.22792 9.30497 8.27606 9.30148H8.65706C8.7052 9.30497 8.75023 9.32656 8.7831 9.3619C8.81598 9.39724 8.83425 9.44372 8.83425 9.49198C8.83425 9.54025 8.81598 9.58672 8.7831 9.62207C8.75023 9.65741 8.7052 9.67899 8.65706 9.68248ZM14.7471 9.30148H15.1281C15.1762 9.30497 15.2212 9.32656 15.2541 9.3619C15.287 9.39724 15.3053 9.44372 15.3053 9.49198C15.3053 9.54025 15.287 9.58672 15.2541 9.62207C15.2212 9.65741 15.1762 9.67899 15.1281 9.68248H14.7471C14.6989 9.67899 14.6539 9.65741 14.621 9.62207C14.5881 9.58672 14.5699 9.54025 14.5699 9.49198C14.5699 9.44372 14.5881 9.39724 14.621 9.3619C14.6539 9.32656 14.6989 9.30497 14.7471 9.30148ZM14.7471 11.3955H14.5571C14.5089 11.392 14.4639 11.3704 14.431 11.3351C14.3981 11.2997 14.3799 11.2532 14.3799 11.205C14.3799 11.1567 14.3981 11.1102 14.431 11.0749C14.4639 11.0396 14.5089 11.018 14.5571 11.0145H14.7471C14.7976 11.0108 14.8475 11.0273 14.8859 11.0604C14.9242 11.0935 14.9478 11.1405 14.9516 11.191C14.9553 11.2415 14.9388 11.2914 14.9057 11.3298C14.8726 11.3681 14.8256 11.3918 14.7751 11.3955C14.7659 11.3982 14.7565 11.3998 14.7471 11.4005V11.3955ZM15.5091 11.3955H15.3181C15.2699 11.392 15.2249 11.3704 15.192 11.3351C15.1591 11.2997 15.1409 11.2532 15.1409 11.205C15.1409 11.1567 15.1591 11.1102 15.192 11.0749C15.2249 11.0396 15.2699 11.018 15.3181 11.0145H15.5091C15.5572 11.018 15.6022 11.0396 15.6351 11.0749C15.668 11.1102 15.6862 11.1567 15.6862 11.205C15.6862 11.2532 15.668 11.2997 15.6351 11.3351C15.6022 11.3704 15.5572 11.392 15.5091 11.3955Z" fill="white"/>
</g>
<defs>
<clipPath id="clip0_46_124">
<rect width="23" height="23" fill="white"/>
</clipPath>
</defs>
</svg>
