<svg width="19" height="19" viewBox="0 0 19 19" fill="none" xmlns="http://www.w3.org/2000/svg">
<g clip-path="url(#clip0_13_129)">
<path d="M18 9.5C18 4.80558 14.1944 1 9.5 1C4.80558 1 1 4.80558 1 9.5C1 14.1944 4.80558 18 9.5 18C14.1944 18 18 14.1944 18 9.5Z" fill="white" stroke="white" stroke-width="2" stroke-linejoin="round"/>
<path d="M18 9.5C18 4.80558 14.1944 1 9.5 1C4.80558 1 1 4.80558 1 9.5C1 14.1944 4.80558 18 9.5 18C14.1944 18 18 14.1944 18 9.5Z" fill="#1B78F2"/>
<path d="M13.75 5.50003C13.7464 5.49993 13.4324 5.49423 13.1191 5.68753C12.8041 5.88193 12.5 6.30133 12.5 7.00003H12.2539H5L5.75 10.5C5.8571 11 6.5 11 6.5 11H12.5C12.5 11 12.4973 11.2466 12.3477 11.4961C12.1981 11.7456 11.9306 12 11.25 12H6C5.6619 11.9952 5.6619 12.5048 6 12.5H7.25H11.25C12.0694 12.5 12.552 12.1295 12.7773 11.7539C13.0027 11.3784 13 11 13 11V7.00003C13 6.43303 13.1959 6.22753 13.3809 6.11333C13.5659 5.99913 13.7461 6.00003 13.7461 6.00003C13.7474 6.00003 13.7487 6.00003 13.75 6.00003H14.25C14.5881 6.00483 14.5881 5.49523 14.25 5.50003H13.7539H13.75ZM11.25 12.5C10.8358 12.5 10.5 12.8358 10.5 13.25C10.5 13.6642 10.8358 14 11.25 14C11.6642 14 12 13.6642 12 13.25C12 12.8358 11.6642 12.5 11.25 12.5ZM7.25 12.5C6.8358 12.5 6.5 12.8358 6.5 13.25C6.5 13.6642 6.8358 14 7.25 14C7.6642 14 8 13.6642 8 13.25C8 12.8358 7.6642 12.5 7.25 12.5Z" fill="white"/>
</g>
<defs>
<clipPath id="clip0_13_129">
<rect width="19" height="19" fill="white"/>
</clipPath>
</defs>
</svg>
