<svg width="19" height="19" viewBox="0 0 19 19" fill="none" xmlns="http://www.w3.org/2000/svg">
<g clip-path="url(#clip0_13_216)">
<path d="M18.174 9.50008C18.174 4.70961 14.2906 0.826172 9.50008 0.826172C4.70961 0.826172 0.826172 4.70961 0.826172 9.50008C0.826172 14.2906 4.70961 18.174 9.50008 18.174C14.2906 18.174 18.174 14.2906 18.174 9.50008Z" fill="white" stroke="white" stroke-width="2" stroke-linejoin="round"/>
<path d="M18.174 9.50008C18.174 4.70961 14.2906 0.826172 9.50008 0.826172C4.70961 0.826172 0.826172 4.70961 0.826172 9.50008C0.826172 14.2906 4.70961 18.174 9.50008 18.174C14.2906 18.174 18.174 14.2906 18.174 9.50008Z" fill="#BA272A"/>
<path d="M9.65379 7.93962C9.65379 7.67941 9.65379 7.41919 9.65379 7.15897C9.65103 7.06244 9.64248 6.96617 9.62818 6.87067C9.62717 6.78882 9.59894 6.70963 9.54793 6.6456C9.49692 6.58158 9.42604 6.53637 9.34648 6.5171C9.24 6.47984 9.14209 6.42156 9.05857 6.34572C8.97506 6.26987 8.90764 6.17802 8.86033 6.0756C8.81301 5.97319 8.78677 5.86231 8.78315 5.74956C8.77953 5.6368 8.79861 5.52447 8.83926 5.41923C8.91638 5.21035 9.07094 5.03916 9.2709 4.94118C9.47085 4.8432 9.70085 4.82596 9.91318 4.89302C10.1284 4.96371 10.3079 5.1151 10.4139 5.31536C10.5199 5.51562 10.5441 5.74917 10.4815 5.96693C10.4656 6.0296 10.4694 6.09563 10.4923 6.1561C10.6246 6.47476 10.6928 6.8164 10.693 7.16145C10.693 7.66536 10.693 8.16928 10.693 8.67319C10.7034 9.25604 10.5161 9.82524 10.1616 10.288C9.80716 10.7508 9.3064 11.0799 8.74096 11.2217C8.64844 11.2465 8.62779 11.2861 8.62448 11.3753C8.60634 11.5937 8.63223 11.8135 8.70063 12.0216C8.76903 12.2298 8.87853 12.4221 9.02265 12.5872C9.23135 12.8205 9.50542 12.9856 9.80921 13.061C10.113 13.1364 10.4325 13.1187 10.726 13.0101C11.0216 12.9016 11.2765 12.7047 11.4562 12.4462C11.6359 12.1877 11.7317 11.8801 11.7306 11.5653C11.7306 11.5397 11.7306 11.5141 11.7306 11.4893C11.7546 11.3822 11.7424 11.2702 11.6959 11.1708C11.6494 11.0713 11.5713 10.9902 11.4737 10.94C11.2485 10.785 11.0832 10.5577 11.005 10.2958C10.9269 10.0339 10.9407 9.7531 11.0441 9.5001C11.1409 9.24331 11.3189 9.02513 11.551 8.87869C11.7831 8.73225 12.0566 8.66556 12.3301 8.68873C12.6036 8.71191 12.862 8.82369 13.0661 9.00711C13.2703 9.19052 13.409 9.43555 13.4612 9.70497C13.511 9.95595 13.4822 10.2162 13.3787 10.4502C13.2752 10.6842 13.1021 10.8806 12.883 11.0127C12.8464 11.0308 12.8163 11.0599 12.7969 11.0958C12.7776 11.1318 12.7698 11.1729 12.7747 11.2134C12.7994 11.6113 12.7518 12.0104 12.6343 12.3914C12.4443 12.9491 12.0699 13.4253 11.5729 13.7417C11.076 14.058 10.486 14.1956 9.90035 14.1317C9.3147 14.0678 8.76829 13.8063 8.3512 13.3902C7.93411 12.9742 7.67124 12.4284 7.60592 11.8429C7.58928 11.6885 7.58376 11.533 7.58939 11.3778C7.58939 11.277 7.55305 11.2448 7.463 11.2192C7.03015 11.1127 6.63312 10.8937 6.3121 10.5844C5.99107 10.2751 5.75745 9.88655 5.63487 9.45797C5.56466 9.22047 5.52714 8.97452 5.52335 8.72689C5.50766 8.18993 5.51509 7.65297 5.52335 7.11519C5.52481 6.77796 5.59509 6.44458 5.72987 6.13545C5.75046 6.08273 5.75336 6.02475 5.73813 5.97023C5.70559 5.86126 5.69483 5.74695 5.70646 5.63382C5.71809 5.52069 5.7519 5.41095 5.80594 5.31089C5.85998 5.21082 5.9332 5.12238 6.02142 5.05061C6.10965 4.97884 6.21114 4.92515 6.32011 4.8926C6.42908 4.86006 6.5434 4.8493 6.65653 4.86093C6.76966 4.87256 6.87939 4.90637 6.97946 4.96041C7.07953 5.01445 7.16797 5.08767 7.23974 5.17589C7.31151 5.26412 7.3652 5.36561 7.39774 5.47458C7.43018 5.5836 7.44055 5.69799 7.42823 5.81106C7.41591 5.92413 7.38115 6.03361 7.32599 6.13308C7.27083 6.23255 7.19638 6.32002 7.10699 6.39036C7.01761 6.46069 6.91509 6.51249 6.80544 6.54271C6.75667 6.55026 6.71177 6.57371 6.67771 6.60942C6.64365 6.64512 6.62234 6.69108 6.61709 6.74015C6.59026 6.86726 6.57313 6.99622 6.56587 7.12593C6.56009 7.65958 6.56092 8.19241 6.56587 8.72606C6.56814 9.09917 6.70515 9.45889 6.95168 9.73896C7.1982 10.019 7.53763 10.2006 7.90744 10.2502C8.28554 10.3041 8.67014 10.2147 8.98564 9.99946C9.30115 9.78423 9.52474 9.45877 9.61248 9.08706C9.63814 8.96367 9.65142 8.83804 9.65213 8.71202C9.65792 8.4518 9.65379 8.19571 9.65379 7.93962Z" fill="white"/>
</g>
<defs>
<clipPath id="clip0_13_216">
<rect width="19" height="19" fill="white"/>
</clipPath>
</defs>
</svg>
