<svg width="19" height="19" viewBox="0 0 19 19" fill="none" xmlns="http://www.w3.org/2000/svg">
<g clip-path="url(#clip0_13_235)">
<path d="M18.174 9.50008C18.174 4.70961 14.2906 0.826172 9.50008 0.826172C4.70961 0.826172 0.826172 4.70961 0.826172 9.50008C0.826172 14.2906 4.70961 18.174 9.50008 18.174C14.2906 18.174 18.174 14.2906 18.174 9.50008Z" fill="white" stroke="white" stroke-width="2" stroke-linejoin="round"/>
<path d="M18.174 9.50008C18.174 4.70961 14.2906 0.826172 9.50008 0.826172C4.70961 0.826172 0.826172 4.70961 0.826172 9.50008C0.826172 14.2906 4.70961 18.174 9.50008 18.174C14.2906 18.174 18.174 14.2906 18.174 9.50008Z" fill="#597FA6"/>
<path d="M6.93288 9.1242C6.94196 9.17294 6.9494 9.21507 6.95848 9.25638C7.04785 9.70395 7.2361 10.1259 7.50948 10.4914C7.54335 10.536 7.57557 10.569 7.63588 10.5475C7.64862 10.5446 7.66163 10.543 7.6747 10.5426C7.89113 10.5149 8.11045 10.519 8.32566 10.555C8.46413 10.5749 8.59481 10.6313 8.70427 10.7184C8.81374 10.8055 8.89804 10.9202 8.94853 11.0506C8.99993 11.1728 9.03091 11.3026 9.04022 11.4348C9.05573 11.6076 9.02649 11.7816 8.9553 11.9398C8.88412 12.0981 8.7734 12.2354 8.63379 12.3385C8.42614 12.4902 8.18052 12.5814 7.92418 12.602C7.43871 12.6623 6.94594 12.593 6.49588 12.4013C6.22877 12.298 5.99961 12.1156 5.83914 11.8784C5.75653 11.7479 5.67392 11.614 5.59792 11.4752C5.41606 11.1084 5.27399 10.7232 5.17414 10.3262C5.13366 10.1808 5.07335 10.0412 5.02048 9.8999C5.0147 9.8842 4.99653 9.87429 4.98496 9.8619C4.9734 9.87924 4.95605 9.89246 4.95605 9.91311C4.94341 9.97666 4.93486 10.041 4.93044 10.1056C4.92326 10.3793 4.93845 10.6531 4.97588 10.9242C5.03659 11.4379 5.19323 11.9356 5.43766 12.3914C5.73748 12.9709 6.21401 13.4399 6.79822 13.7305C6.99763 13.8326 7.21257 13.901 7.43431 13.9329C7.70831 13.9696 7.98584 13.9718 8.2604 13.9395C8.47011 13.9187 8.67264 13.8518 8.85353 13.7437C9.08593 13.5978 9.29227 13.4141 9.46401 13.2001C9.62294 13.0091 9.74102 12.7876 9.81096 12.5492C9.86127 12.369 9.89201 12.184 9.90266 11.9973C9.9285 11.6844 9.89372 11.3694 9.80022 11.0696C9.73992 10.8871 9.65401 10.7128 9.57883 10.5352L9.55983 10.4914H9.61188C9.86796 10.4914 10.1232 10.4914 10.3785 10.4823C10.5318 10.4798 10.6788 10.421 10.7915 10.3171C10.9238 10.1999 11.0409 10.0667 11.1401 9.92055C11.2698 9.72972 11.388 9.53311 11.5135 9.34229C11.6293 9.14507 11.7722 8.96514 11.9381 8.80781C12.0581 8.68598 12.22 8.61448 12.3908 8.6079C12.5099 8.61196 12.6285 8.62383 12.746 8.64342C12.8077 8.65087 12.8666 8.67298 12.9179 8.70791C12.9692 8.74284 13.0114 8.78956 13.041 8.84416C13.0962 8.93943 13.1426 9.03952 13.1797 9.1432C13.2674 9.41795 13.3063 9.70592 13.2946 9.99407C13.2954 10.2099 13.26 10.4244 13.1897 10.6285C13.0561 10.9921 12.8068 11.3018 12.48 11.5099C12.1982 11.708 11.8561 11.8015 11.5127 11.7743C11.3105 11.7613 11.1177 11.684 10.9625 11.5537C10.8487 11.4544 10.7512 11.3379 10.6734 11.2084C10.5872 11.0827 10.538 10.9353 10.5313 10.783C10.5295 10.7637 10.5259 10.7446 10.5206 10.726L10.5057 10.7342C10.4983 10.7451 10.4917 10.7564 10.4859 10.7681C10.4212 10.8966 10.3846 11.0374 10.3785 11.1812C10.3667 11.4084 10.3853 11.6362 10.4338 11.8585C10.4807 12.1238 10.5811 12.3767 10.7287 12.602C10.8649 12.811 11.0553 12.9789 11.2797 13.0878C11.4526 13.1633 11.6381 13.2056 11.8266 13.2125C12.225 13.2466 12.622 13.1328 12.9418 12.8928C13.2096 12.6831 13.4202 12.4092 13.554 12.0965C13.7219 11.7134 13.8244 11.3049 13.8571 10.8879C13.8932 10.5389 13.8863 10.1869 13.8365 9.83959C13.7827 9.44157 13.6556 9.05698 13.4614 8.70538C13.2708 8.35755 12.9878 8.06911 12.6436 7.87185C12.5389 7.81143 12.4232 7.7724 12.3033 7.75703C12.0903 7.73307 11.8752 7.73307 11.6622 7.75703C11.3529 7.78424 11.0632 7.92002 10.8444 8.14033C10.7009 8.28523 10.5765 8.44792 10.4743 8.62442C10.3496 8.83838 10.2339 9.05729 10.1141 9.27372C10.0161 9.46731 9.88935 9.64499 9.73827 9.80077C9.65709 9.88664 9.55414 9.9489 9.44038 9.9809C9.32662 10.0129 9.20632 10.0135 9.09227 9.98251C8.89696 9.92226 8.70777 9.84371 8.52722 9.7479V9.74211C8.58753 9.70411 8.64783 9.66364 8.70979 9.62646C8.81731 9.56205 8.91176 9.47798 8.98818 9.37864C9.1559 9.16337 9.29039 8.92417 9.38718 8.66903C9.45975 8.49517 9.49791 8.30889 9.49953 8.12051C9.497 7.70047 9.33281 7.29755 9.04105 6.99538C8.87613 6.81297 8.65788 6.68722 8.41735 6.63603C8.18438 6.59124 7.94596 6.58205 7.71022 6.60877C7.40317 6.6407 7.10127 6.71063 6.81144 6.81694C6.43319 6.95772 6.08423 7.16721 5.78214 7.43485L6.41575 8.50051L6.4587 8.47903C6.62392 8.39642 6.78914 8.31381 6.95435 8.2312C7.2424 8.08693 7.5478 7.98032 7.86305 7.91398C8.0206 7.8787 8.18429 7.88153 8.34053 7.92224C8.4484 7.95868 8.54731 8.01757 8.63076 8.09503C8.7142 8.1725 8.78027 8.26677 8.82462 8.37164C8.84172 8.40485 8.85064 8.44167 8.85064 8.47903C8.85064 8.51639 8.84172 8.5532 8.82462 8.58642C8.77046 8.70454 8.69224 8.81005 8.59496 8.8962C8.43374 9.03042 8.23786 9.11633 8.02992 9.14403C7.77786 9.17996 7.52198 9.17996 7.26992 9.14403L6.93288 9.1242ZM8.83288 5.41838C8.82131 5.4349 8.80066 5.45307 8.79735 5.4729C8.78708 5.5212 8.78292 5.5706 8.78496 5.61994C8.80419 5.92589 8.8887 6.22419 9.03279 6.49477C9.18318 6.76146 9.38375 6.99653 9.62344 7.18703C9.93067 7.44083 10.3131 7.58603 10.7114 7.60007C10.9385 7.61049 11.166 7.59301 11.3888 7.54803C11.5662 7.51767 11.7413 7.47461 11.9125 7.41916C12.2398 7.29831 12.5463 7.12748 12.8212 6.91277C12.8874 6.85901 12.9498 6.80078 13.0079 6.73846C13.0252 6.7232 13.0366 6.70235 13.0401 6.67954C13.0435 6.65674 13.0389 6.63344 13.0269 6.61372C13.0096 6.58151 12.998 6.54681 12.9815 6.51459C12.9067 6.38262 12.8172 6.25957 12.7147 6.14781C12.6139 6.02885 12.5153 5.90824 12.4189 5.78598C12.3983 5.75955 12.3809 5.75459 12.3553 5.77111C12.2859 5.81655 12.214 5.85868 12.1488 5.9099C11.9614 6.06226 11.7629 6.20033 11.5548 6.32294C11.1949 6.54119 10.7728 6.63415 10.3545 6.58729C10.1603 6.56662 9.9721 6.50735 9.80105 6.41298C9.51048 6.24693 9.25602 6.02449 9.05262 5.75872C8.97992 5.65464 8.91218 5.53898 8.83288 5.41838ZM10.5082 4.73438C10.5046 4.74155 10.5004 4.74845 10.4958 4.75503C10.2369 5.04361 9.97728 5.33109 9.71679 5.61746C9.70988 5.62391 9.7055 5.63261 9.70444 5.642C9.70338 5.65139 9.70571 5.66085 9.71101 5.66868C9.77215 5.79004 9.85632 5.89834 9.95883 5.98755C10.136 6.14163 10.3234 6.2835 10.5197 6.41216C10.528 6.41877 10.5487 6.41216 10.5594 6.41216C10.6855 6.33201 10.8002 6.23532 10.9006 6.12468C11.0616 5.93487 11.2326 5.7537 11.4127 5.58194V5.57203L10.5082 4.73438Z" fill="white"/>
<path d="M6.9331 9.12411L7.26932 9.15467C7.52138 9.19061 7.77726 9.19061 8.02932 9.15467C8.23726 9.12698 8.43314 9.04107 8.59436 8.90685C8.69229 8.81902 8.77055 8.71148 8.82401 8.59128C8.84111 8.55807 8.85004 8.52125 8.85004 8.48389C8.85004 8.44653 8.84111 8.40972 8.82401 8.3765C8.78022 8.27166 8.71474 8.17727 8.63188 8.09954C8.54902 8.0218 8.45065 7.96248 8.34323 7.92546C8.187 7.88475 8.0233 7.88191 7.86575 7.9172C7.5505 7.98353 7.2451 8.09015 6.95706 8.23441C6.79184 8.31207 6.62662 8.39963 6.4614 8.48224L6.41845 8.50372L5.78236 7.43476C6.08432 7.16653 6.43329 6.95647 6.81166 6.8152C7.10156 6.70945 7.40347 6.64008 7.71045 6.60867C7.94681 6.58233 8.1858 6.59208 8.41923 6.63759C8.65975 6.68878 8.878 6.81453 9.04293 6.99694C9.33369 7.29896 9.49724 7.70118 9.49975 8.12041C9.49709 8.30902 9.45781 8.49531 9.3841 8.66894C9.28731 8.92408 9.15282 9.16328 8.9851 9.37854C8.90868 9.47789 8.81423 9.56196 8.70671 9.62637C8.64475 9.66354 8.58445 9.70402 8.52414 9.74202V9.74781C8.70425 9.84267 8.89288 9.92039 9.08753 9.97994C9.20158 10.0109 9.32189 10.0103 9.43565 9.97833C9.54941 9.94633 9.65235 9.88407 9.73353 9.7982C9.88461 9.64242 10.0113 9.46474 10.1094 9.27115C10.2292 9.05472 10.3448 8.83581 10.4696 8.62185C10.5718 8.44535 10.6961 8.28266 10.8397 8.13776C11.0585 7.91745 11.3482 7.78167 11.6575 7.75446C11.8705 7.7305 12.0855 7.7305 12.2985 7.75446C12.4185 7.76984 12.5341 7.80886 12.6389 7.86928C12.983 8.06654 13.266 8.35498 13.4567 8.70281C13.6508 9.05441 13.778 9.439 13.8318 9.83702C13.8816 10.1843 13.8885 10.5364 13.8524 10.8853C13.8197 11.3023 13.7172 11.7108 13.5492 12.0939C13.4154 12.4066 13.2049 12.6805 12.9371 12.8902C12.6173 13.1303 12.2203 13.2441 11.8219 13.2099C11.6334 13.203 11.4479 13.1607 11.275 13.0852C11.0506 12.9764 10.8601 12.8084 10.724 12.5995C10.5763 12.3742 10.476 12.1212 10.4291 11.856C10.3805 11.6337 10.3619 11.4058 10.3738 11.1786C10.3799 11.0349 10.4165 10.8941 10.4811 10.7655C10.4869 10.7538 10.4936 10.7425 10.501 10.7317L10.5158 10.7234C10.5212 10.742 10.5248 10.7611 10.5266 10.7804C10.5332 10.9327 10.5825 11.0801 10.6687 11.2058C10.7464 11.3353 10.844 11.4518 10.9578 11.5512C11.113 11.6815 11.3057 11.7588 11.508 11.7717C11.8514 11.799 12.1935 11.7055 12.4753 11.5074C12.802 11.2992 13.0514 10.9896 13.1849 10.6259C13.2552 10.4218 13.2907 10.2074 13.2898 9.9915C13.3015 9.70335 13.2627 9.41538 13.175 9.14063C13.1379 9.03695 13.0915 8.93686 13.0362 8.84159C13.0067 8.78699 12.9645 8.74027 12.9132 8.70534C12.8619 8.67041 12.8029 8.6483 12.7413 8.64085C12.6254 8.6223 12.5084 8.61127 12.3911 8.60781C12.2217 8.61304 12.0606 8.68209 11.94 8.80111C11.7741 8.95844 11.6311 9.13837 11.5154 9.33559C11.3915 9.53054 11.2717 9.72715 11.142 9.91798C11.0428 10.0642 10.9257 10.1974 10.7934 10.3145C10.6807 10.4184 10.5337 10.4772 10.3804 10.4797C10.1251 10.4855 9.86984 10.4863 9.61375 10.4888H9.56006L9.57906 10.5342C9.65423 10.7118 9.74427 10.8862 9.80045 11.0687C9.89189 11.3686 9.9247 11.6833 9.8971 11.9956C9.88645 12.1823 9.85571 12.3673 9.8054 12.5474C9.73547 12.7858 9.61738 13.0074 9.45845 13.1984C9.28671 13.4124 9.08037 13.5961 8.84797 13.7419C8.66708 13.8501 8.46455 13.9169 8.25484 13.9377C7.98028 13.9701 7.70275 13.9679 7.42875 13.9311C7.20786 13.8989 6.99378 13.8306 6.79514 13.7287C6.21241 13.438 5.73712 12.9697 5.43788 12.3913C5.19172 11.935 5.03366 11.4364 4.97197 10.9217C4.93455 10.6505 4.91935 10.3767 4.92653 10.103C4.93242 10.0391 4.94235 9.97566 4.95627 9.91302C4.95627 9.8965 4.97775 9.88328 4.98932 9.86841C5.00088 9.88081 5.01906 9.89072 5.02484 9.90641C5.07771 10.0477 5.13801 10.1873 5.17849 10.3327C5.27879 10.7275 5.42085 11.1105 5.60227 11.4752C5.67497 11.6139 5.75758 11.7478 5.84349 11.8783C6.00505 12.1161 6.23573 12.2987 6.50436 12.4012C6.95442 12.5929 7.44719 12.6622 7.93267 12.6019C8.189 12.5813 8.43462 12.4901 8.64227 12.3384C8.78188 12.2353 8.89261 12.098 8.96379 11.9397C9.03497 11.7815 9.06422 11.6075 9.04871 11.4347C9.0394 11.3025 9.00842 11.1727 8.95701 11.0505C8.90653 10.9201 8.82222 10.8054 8.71276 10.7183C8.60329 10.6312 8.47261 10.5748 8.33414 10.5549C8.11893 10.5189 7.89961 10.5148 7.68319 10.5425C7.67011 10.5429 7.65711 10.5445 7.64436 10.5475C7.58406 10.5689 7.55184 10.5359 7.51797 10.4913C7.24492 10.1265 7.05668 9.70547 6.96697 9.25876C6.94962 9.21498 6.93888 9.16954 6.9331 9.12411Z" fill="white"/>
<path d="M8.83425 5.41821C8.91686 5.53882 8.98047 5.65447 9.0606 5.76021C9.26401 6.02598 9.51847 6.24842 9.80903 6.41447C9.98008 6.50884 10.1683 6.56811 10.3625 6.58878C10.7816 6.6362 11.2047 6.54322 11.5653 6.32443C11.7734 6.20182 11.9719 6.06375 12.1593 5.91139C12.2245 5.86017 12.2964 5.81804 12.3658 5.7726C12.3914 5.75608 12.4087 5.76104 12.4294 5.78747C12.5263 5.90973 12.6249 6.03034 12.7251 6.1493C12.8277 6.26106 12.9172 6.38411 12.9919 6.51608C13.0085 6.5483 13.02 6.583 13.0374 6.61521C13.0494 6.63493 13.054 6.65823 13.0505 6.68103C13.0471 6.70384 13.0357 6.72469 13.0184 6.73995C12.9602 6.80227 12.8978 6.8605 12.8317 6.91426C12.5568 7.12897 12.2502 7.2998 11.923 7.42065C11.7517 7.4761 11.5767 7.51916 11.3993 7.54952C11.1764 7.5945 10.9489 7.61198 10.7219 7.60156C10.3236 7.58752 9.94114 7.44232 9.6339 7.18852C9.39421 6.99802 9.19364 6.76295 9.04325 6.49626C8.89916 6.22568 8.81466 5.92738 8.79543 5.62143C8.79338 5.57209 8.79755 5.52269 8.80782 5.47439C8.80203 5.45208 8.82269 5.43473 8.83425 5.41821Z" fill="white"/>
<path d="M10.5097 4.73438L11.4127 5.57038V5.58029C11.2325 5.75205 11.0615 5.93322 10.9005 6.12303C10.8001 6.23367 10.6854 6.33036 10.5593 6.41051C10.5486 6.41629 10.5279 6.42042 10.5197 6.41051C10.3233 6.28184 10.1359 6.13998 9.95875 5.9859C9.85624 5.89669 9.77206 5.78839 9.71092 5.66703C9.70616 5.65926 9.70422 5.6501 9.70543 5.64107C9.70663 5.63205 9.7109 5.62371 9.71753 5.61746C9.97747 5.32998 10.2374 5.04195 10.4974 4.75338C10.5019 4.74733 10.5061 4.74098 10.5097 4.73438Z" fill="white"/>
</g>
<defs>
<clipPath id="clip0_13_235">
<rect width="19" height="19" fill="white"/>
</clipPath>
</defs>
</svg>
