<svg width="19" height="19" viewBox="0 0 19 19" fill="none" xmlns="http://www.w3.org/2000/svg">
<g clip-path="url(#clip0_13_282)">
<path d="M18 9.5C18 4.80558 14.1944 1 9.5 1C4.80558 1 1 4.80558 1 9.5C1 14.1944 4.80558 18 9.5 18C14.1944 18 18 14.1944 18 9.5Z" fill="white" stroke="white" stroke-width="2" stroke-linejoin="round"/>
<path d="M18 9.5C18 4.80558 14.1944 1 9.5 1C4.80558 1 1 4.80558 1 9.5C1 14.1944 4.80558 18 9.5 18C14.1944 18 18 14.1944 18 9.5Z" fill="#BA272A"/>
<path d="M14 8H11V5C10.9616 4.4644 10.5356 4.0384 10 4H9C8.4644 4.0384 8.0384 4.4644 8 5V8H5C4.4644 8.0384 4.0384 8.4644 4 9V10C4.0384 10.5356 4.4644 10.9616 5 11H8V14C8.0384 14.5356 8.4644 14.9616 9 15H10C10.5356 14.9616 10.9616 14.5356 11 14V11H14C14.5356 10.9616 14.9616 10.5356 15 10V9C15 8.4477 14.5523 8 14 8Z" fill="white"/>
</g>
<defs>
<clipPath id="clip0_13_282">
<rect width="19" height="19" fill="white"/>
</clipPath>
</defs>
</svg>
