<svg width="19" height="19" viewBox="0 0 19 19" fill="none" xmlns="http://www.w3.org/2000/svg">
<g clip-path="url(#clip0_13_225)">
<path d="M18 9.5C18 4.80558 14.1944 1 9.5 1C4.80558 1 1 4.80558 1 9.5C1 14.1944 4.80558 18 9.5 18C14.1944 18 18 14.1944 18 9.5Z" fill="white" stroke="white" stroke-width="2" stroke-linejoin="round"/>
<path d="M18 9.5C18 4.80558 14.1944 1 9.5 1C4.80558 1 1 4.80558 1 9.5C1 14.1944 4.80558 18 9.5 18C14.1944 18 18 14.1944 18 9.5Z" fill="#D97200"/>
<path d="M7.75 9.55498C8.38117 9.55574 8.99553 9.3644 9.5 9.00984C10.0045 9.3644 10.6188 9.55574 11.25 9.55498L10.0833 14.6684C9.9571 14.9454 9.61445 15.0743 9.318 14.9562C9.1794 14.901 9.06903 14.7979 9.01 14.6684L7.75 9.55498ZM11.25 5.19388H11.145C11.4747 4.34488 11.0056 3.40681 10.0971 3.09859C9.18862 2.79037 8.1847 3.22898 7.855 4.07798C7.715 4.43843 7.715 4.83343 7.855 5.19388H7.75C6.78353 5.19388 6 5.92611 6 6.82929C6 7.73247 6.78353 8.4647 7.75 8.4647C8.71647 8.4647 9.5 7.73247 9.5 6.82929C9.5 7.73247 10.2835 8.4647 11.25 8.4647C12.2165 8.4647 13 7.73247 13 6.82929C13 5.92611 12.2165 5.19388 11.25 5.19388Z" fill="white"/>
</g>
<defs>
<clipPath id="clip0_13_225">
<rect width="19" height="19" fill="white"/>
</clipPath>
</defs>
</svg>
