<svg width="19" height="19" viewBox="0 0 19 19" fill="none" xmlns="http://www.w3.org/2000/svg">
<g clip-path="url(#clip0_13_192)">
<path d="M18 9.5C18 4.80558 14.1944 1 9.5 1C4.80558 1 1 4.80558 1 9.5C1 14.1944 4.80558 18 9.5 18C14.1944 18 18 14.1944 18 9.5Z" fill="white" stroke="white" stroke-width="2" stroke-linejoin="round"/>
<path d="M18 9.5C18 4.80558 14.1944 1 9.5 1C4.80558 1 1 4.80558 1 9.5C1 14.1944 4.80558 18 9.5 18C14.1944 18 18 14.1944 18 9.5Z" fill="#597FA6"/>
<path d="M8.55556 4L7.66667 5.81818H5.88889C5.88889 5.81818 5 5.81818 5 6.72727V13.0909C5 13.0909 5 14 5.88889 14H12.1111C13 14 13 13.0909 13 13.0909V4.90909C13 4 12.1111 4 12.1111 4H8.55556ZM9.44444 4.90909H12.1111V5.81818H9.44444V4.90909ZM9 7.63636C10.2273 7.63636 11.2222 8.65391 11.2222 9.90909C11.2222 11.1643 10.2273 12.1818 9 12.1818C7.77271 12.1818 6.77778 11.1643 6.77778 9.90909C6.77778 8.65391 7.77271 7.63636 9 7.63636Z" fill="white"/>
</g>
<defs>
<clipPath id="clip0_13_192">
<rect width="19" height="19" fill="white"/>
</clipPath>
</defs>
</svg>
