<svg width="19" height="19" viewBox="0 0 19 19" fill="none" xmlns="http://www.w3.org/2000/svg">
<g clip-path="url(#clip0_13_337)">
<path d="M18 9.5C18 4.80558 14.1944 1 9.5 1C4.80558 1 1 4.80558 1 9.5C1 14.1944 4.80558 18 9.5 18C14.1944 18 18 14.1944 18 9.5Z" fill="white" stroke="white" stroke-width="2" stroke-linejoin="round"/>
<path d="M18 9.5C18 4.80558 14.1944 1 9.5 1C4.80558 1 1 4.80558 1 9.5C1 14.1944 4.80558 18 9.5 18C14.1944 18 18 14.1944 18 9.5Z" fill="#875C1B"/>
<path d="M4 5V12C7.26 12 9.4902 14 9.4902 14C9.4902 14 11.76 12 15 12V5C11 5 9.4902 6.7246 9.4902 6.7246C9.4902 6.7246 8 5 4 5ZM5 6C6.1953 5.9687 8.053 6.4015 9 7.3477L9.5 8L10 7.3477C10.9615 6.4183 12.8009 5.9878 14 6V11C12 11 10.6456 11.8564 9.4902 12.7812C8.3506 11.8533 7 11 5 11V6ZM6 7.3027V7.4843C6.8234 7.6531 8.0997 8.1711 9 8.6601V8.4316C8.0828 7.9535 6.8241 7.46 6 7.3027ZM13 7.3027C12.1759 7.46 10.9172 7.9535 10 8.4316V8.6601C10.9003 8.1711 12.1766 7.6531 13 7.4843V7.3027ZM6 8.2227V8.4043C6.8217 8.5582 8.0985 9.0627 9 9.5371V9.3418C8.0827 8.8663 6.8238 8.3752 6 8.2227ZM13 8.2227C12.1762 8.3752 10.9173 8.8663 10 9.3418V9.5371C10.9015 9.0627 12.1783 8.5582 13 8.4043V8.2227ZM6 9.1172V9.2988C6.8216 9.4535 8.0984 9.9578 9 10.4316V10.2363C8.0825 9.7614 6.8236 9.2707 6 9.1172ZM13 9.1172C12.1764 9.2707 10.9175 9.7614 10 10.2363V10.4316C10.9016 9.9578 12.1784 9.4535 13 9.2988V9.1172ZM6 10V10.1816C6.8201 10.322 8.097 10.811 9 11.2695V11.1191C8.0825 10.6445 6.8236 10.1538 6 10ZM13 10C12.1764 10.1538 10.9175 10.6445 10 11.1191V11.2695C10.903 10.811 12.1799 10.322 13 10.1816V10Z" fill="white"/>
</g>
<defs>
<clipPath id="clip0_13_337">
<rect width="19" height="19" fill="white"/>
</clipPath>
</defs>
</svg>
