<svg width="19" height="19" viewBox="0 0 19 19" fill="none" xmlns="http://www.w3.org/2000/svg">
<g clip-path="url(#clip0_13_230)">
<path d="M18 9.5C18 4.80558 14.1944 1 9.5 1C4.80558 1 1 4.80558 1 9.5C1 14.1944 4.80558 18 9.5 18C14.1944 18 18 14.1944 18 9.5Z" fill="white" stroke="white" stroke-width="2" stroke-linejoin="round"/>
<path d="M18 9.5C18 4.80558 14.1944 1 9.5 1C4.80558 1 1 4.80558 1 9.5C1 14.1944 4.80558 18 9.5 18C14.1944 18 18 14.1944 18 9.5Z" fill="#912086" fill-opacity="0.7"/>
<path d="M5.5 6C5.2239 6 5 6.2239 5 6.5V12.5C5 12.7761 5.2239 13 5.5 13C5.7761 13 6 12.7761 6 12.5V12H13V12.5C13 12.7761 13.2239 13 13.5 13C13.7761 13 14 12.7761 14 12.5V11.5C14 11.2239 13.7761 11 13.5 11H6V6.5C6 6.2239 5.7761 6 5.5 6ZM7.5 6C6.9477 6 6.5 6.4477 6.5 7C6.5 7.5523 6.9477 8 7.5 8C8.0523 8 8.5 7.5523 8.5 7C8.5 6.4477 8.0523 6 7.5 6ZM10 7C9.4477 7 9 7.4477 9 8V9H7C6.7239 9 6.5 9.2239 6.5 9.5C6.5 9.7761 6.7239 10 7 10H14V9C14 7.8954 13.1046 7 12 7H10Z" fill="white"/>
</g>
<defs>
<clipPath id="clip0_13_230">
<rect width="19" height="19" fill="white"/>
</clipPath>
</defs>
</svg>
