<svg width="19" height="19" viewBox="0 0 19 19" fill="none" xmlns="http://www.w3.org/2000/svg">
<g clip-path="url(#clip0_13_79)">
<path d="M18 9.5C18 4.80558 14.1944 1 9.5 1C4.80558 1 1 4.80558 1 9.5C1 14.1944 4.80558 18 9.5 18C14.1944 18 18 14.1944 18 9.5Z" fill="white" stroke="white" stroke-width="2" stroke-linejoin="round"/>
<path d="M18 9.5C18 4.80558 14.1944 1 9.5 1C4.80558 1 1 4.80558 1 9.5C1 14.1944 4.80558 18 9.5 18C14.1944 18 18 14.1944 18 9.5Z" fill="#299091"/>
<path d="M9.5 4L5 6V7H14V6L9.5 4ZM6 8V12L5 13V14H14V13L13 12V8H6ZM7.49 9C7.6254 8.9992 7.7553 9.0533 7.85 9.15L9.5 10.79L11.15 9.15C11.3472 8.9567 11.6637 8.9598 11.8571 9.157C11.947 9.2487 11.9982 9.3715 12 9.5V12.5C12 12.7761 11.7761 13 11.5 13C11.2239 13 11 12.7761 11 12.5V10.71L9.85 11.85C9.6555 12.0461 9.339 12.0474 9.1429 11.8529L9.14 11.85L8 10.71V12.5C8 12.7761 7.7761 13 7.5 13C7.2239 13 7 12.7761 7 12.5V9.5C6.9999 9.2277 7.2178 9.0054 7.49 9Z" fill="white"/>
</g>
<defs>
<clipPath id="clip0_13_79">
<rect width="19" height="19" fill="white"/>
</clipPath>
</defs>
</svg>
