<svg width="23" height="23" viewBox="0 0 23 23" fill="none" xmlns="http://www.w3.org/2000/svg">
<g clip-path="url(#clip0_46_159)">
<path d="M22 11.5C22 5.70101 17.299 1 11.5 1C5.70101 1 1 5.70101 1 11.5C1 17.299 5.70101 22 11.5 22C17.299 22 22 17.299 22 11.5Z" fill="white" stroke="white" stroke-width="2" stroke-linejoin="round"/>
<path d="M22 11.5C22 5.70101 17.299 1 11.5 1C5.70101 1 1 5.70101 1 11.5C1 17.299 5.70101 22 11.5 22C17.299 22 22 17.299 22 11.5Z" fill="#F0438B"/>
<path d="M16.0999 10.5996C16.0058 10.6485 15.9045 10.6823 15.7999 10.6996H7.2999C6.8999 10.6996 6.8999 10.6996 6.8999 10.2996V9.99961C6.8999 9.79961 6.9999 9.69961 7.1999 9.59961L11.3999 8.09961V6.59961H13.5999L12.9999 7.49961H11.6999V8.19961L15.8999 9.69961C15.9999 9.69961 16.1999 9.79961 16.1999 9.89961C16.216 10.1374 16.1819 10.3759 16.0999 10.5996Z" fill="white"/>
<path d="M10.6001 13.1998V11.7998C10.5942 11.759 10.598 11.7174 10.611 11.6784C10.624 11.6393 10.6459 11.6038 10.675 11.5747C10.7041 11.5456 10.7396 11.5236 10.7787 11.5106C10.8178 11.4976 10.8593 11.4939 10.9001 11.4998H12.1001C12.1409 11.4939 12.1824 11.4976 12.2215 11.5106C12.2606 11.5236 12.2961 11.5456 12.3252 11.5747C12.3543 11.6038 12.3762 11.6393 12.3892 11.6784C12.4022 11.7174 12.406 11.759 12.4001 11.7998V14.6998C12.4001 14.8998 12.3001 14.8998 12.2001 14.8998H10.9001C10.8593 14.9056 10.8178 14.9019 10.7787 14.8889C10.7396 14.8759 10.7041 14.854 10.675 14.8248C10.6459 14.7957 10.624 14.7602 10.611 14.7212C10.598 14.6821 10.5942 14.6405 10.6001 14.5998V13.1998Z" fill="white"/>
<path d="M9.39996 13.1998V14.5998C9.40582 14.6405 9.4021 14.6821 9.38909 14.7212C9.37609 14.7602 9.35415 14.7957 9.32504 14.8248C9.29592 14.854 9.26042 14.8759 9.22135 14.8889C9.18228 14.9019 9.14072 14.9056 9.09996 14.8998H7.99996C7.9592 14.9056 7.91764 14.9019 7.87857 14.8889C7.8395 14.8759 7.804 14.854 7.77488 14.8248C7.74577 14.7957 7.72383 14.7602 7.71083 14.7212C7.69782 14.6821 7.6941 14.6405 7.69996 14.5998V11.7998C7.6941 11.759 7.69782 11.7174 7.71083 11.6784C7.72383 11.6393 7.74577 11.6038 7.77488 11.5747C7.804 11.5456 7.8395 11.5236 7.87857 11.5106C7.91764 11.4976 7.9592 11.4939 7.99996 11.4998H9.09996C9.14072 11.4939 9.18228 11.4976 9.22135 11.5106C9.26042 11.5236 9.29592 11.5456 9.32504 11.5747C9.35415 11.6038 9.37609 11.6393 9.38909 11.6784C9.4021 11.7174 9.40582 11.759 9.39996 11.7998V13.1998Z" fill="white"/>
<path d="M13.6 13.1998V11.7998C13.5942 11.759 13.5979 11.7174 13.6109 11.6784C13.6239 11.6393 13.6458 11.6038 13.6749 11.5747C13.704 11.5456 13.7395 11.5236 13.7786 11.5106C13.8177 11.4976 13.8593 11.4939 13.9 11.4998H15C15.0408 11.4939 15.0823 11.4976 15.1214 11.5106C15.1605 11.5236 15.196 11.5456 15.2251 11.5747C15.2542 11.6038 15.2761 11.6393 15.2891 11.6784C15.3021 11.7174 15.3059 11.759 15.3 11.7998V14.5998C15.3059 14.6405 15.3021 14.6821 15.2891 14.7212C15.2761 14.7602 15.2542 14.7957 15.2251 14.8248C15.196 14.854 15.1605 14.8759 15.1214 14.8889C15.0823 14.9019 15.0408 14.9056 15 14.8998H13.8C13.7593 14.9056 13.7177 14.9019 13.6786 14.8889C13.6395 14.8759 13.604 14.854 13.5749 14.8248C13.5458 14.7957 13.5239 14.7602 13.5109 14.7212C13.4979 14.6821 13.4942 14.6405 13.5 14.5998C13.583 14.138 13.6165 13.6687 13.6 13.1998Z" fill="white"/>
<path d="M6.2 15.7002H16.7C16.7519 15.7037 16.8007 15.7259 16.8375 15.7627C16.8743 15.7995 16.8965 15.8483 16.9 15.9002V16.1002C16.8965 16.1521 16.8743 16.2009 16.8375 16.2377C16.8007 16.2745 16.7519 16.2967 16.7 16.3002H6.2C6.14811 16.2967 6.09926 16.2745 6.06248 16.2377C6.02571 16.2009 6.00351 16.1521 6 16.1002V15.9002C6.00351 15.8483 6.02571 15.7995 6.06248 15.7627C6.09926 15.7259 6.14811 15.7037 6.2 15.7002Z" fill="white"/>
</g>
<defs>
<clipPath id="clip0_46_159">
<rect width="23" height="23" fill="white"/>
</clipPath>
</defs>
</svg>
