<svg width="19" height="19" viewBox="0 0 19 19" fill="none" xmlns="http://www.w3.org/2000/svg">
<g clip-path="url(#clip0_13_67)">
<path d="M18.174 9.50008C18.174 4.70961 14.2906 0.826172 9.50008 0.826172C4.70961 0.826172 0.826172 4.70961 0.826172 9.50008C0.826172 14.2906 4.70961 18.174 9.50008 18.174C14.2906 18.174 18.174 14.2906 18.174 9.50008Z" fill="white" stroke="white" stroke-width="2" stroke-linejoin="round"/>
<path d="M18.174 9.50008C18.174 4.70961 14.2906 0.826172 9.50008 0.826172C4.70961 0.826172 0.826172 4.70961 0.826172 9.50008C0.826172 14.2906 4.70961 18.174 9.50008 18.174C14.2906 18.174 18.174 14.2906 18.174 9.50008Z" fill="#F0438B"/>
<path d="M13.3002 8.75624C13.2225 8.79664 13.1388 8.82456 13.0524 8.83885H6.03063C5.7002 8.83885 5.7002 8.83885 5.7002 8.50842V8.2606C5.7002 8.09538 5.7828 8.01277 5.94802 7.93017L9.41759 6.69104V5.4519H11.235L10.7393 6.19538H9.66541V6.77364L13.135 8.01277C13.2176 8.01277 13.3828 8.09538 13.3828 8.17799C13.3961 8.37443 13.3679 8.57145 13.3002 8.75624Z" fill="white"/>
<path d="M8.75712 10.9042V9.74764C8.75224 9.71393 8.75538 9.67957 8.76612 9.64735C8.77686 9.61505 8.79495 9.58573 8.81899 9.56169C8.84303 9.53765 8.87236 9.51947 8.90466 9.50873C8.93696 9.498 8.97124 9.49494 9.00494 9.49981H9.99625C10.03 9.49494 10.0642 9.498 10.0965 9.50873C10.1288 9.51947 10.1582 9.53765 10.1822 9.56169C10.2062 9.58573 10.2243 9.61505 10.2351 9.64735C10.2458 9.67957 10.2489 9.71393 10.2441 9.74764V12.1433C10.2441 12.3085 10.1615 12.3085 10.0789 12.3085H9.00494C8.97124 12.3133 8.93696 12.3102 8.90466 12.2995C8.87236 12.2888 8.84303 12.2707 8.81899 12.2466C8.79495 12.2225 8.77686 12.1932 8.76612 12.161C8.75538 12.1287 8.75224 12.0943 8.75712 12.0607V10.9042Z" fill="white"/>
<path d="M7.76497 10.9042V12.0607C7.76981 12.0943 7.76674 12.1287 7.75599 12.161C7.74525 12.1932 7.72713 12.2225 7.70308 12.2466C7.67903 12.2707 7.6497 12.2888 7.61743 12.2995C7.58515 12.3102 7.55082 12.3133 7.51715 12.3085H6.60845C6.57478 12.3133 6.54045 12.3102 6.50817 12.2995C6.4759 12.2888 6.44657 12.2707 6.42252 12.2466C6.39847 12.2225 6.38034 12.1932 6.36961 12.161C6.35886 12.1287 6.35579 12.0943 6.36063 12.0607V9.74764C6.35579 9.71393 6.35886 9.67957 6.36961 9.64735C6.38034 9.61505 6.39847 9.58573 6.42252 9.56169C6.44657 9.53765 6.4759 9.51947 6.50817 9.50873C6.54045 9.498 6.57478 9.49494 6.60845 9.49981H7.51715C7.55082 9.49494 7.58515 9.498 7.61743 9.50873C7.6497 9.51947 7.67903 9.53765 7.70308 9.56169C7.72713 9.58573 7.74525 9.61505 7.75599 9.64735C7.76674 9.67957 7.76981 9.71393 7.76497 9.74764V10.9042Z" fill="white"/>
<path d="M11.2352 10.9042V9.74764C11.2304 9.71393 11.2335 9.67957 11.2442 9.64735C11.2549 9.61505 11.273 9.58573 11.2971 9.56169C11.3211 9.53765 11.3504 9.51947 11.3827 9.50873C11.415 9.498 11.4494 9.49494 11.483 9.49981H12.3917C12.4254 9.49494 12.4597 9.498 12.492 9.50873C12.5243 9.51947 12.5536 9.53765 12.5777 9.56169C12.6017 9.58573 12.6198 9.61505 12.6305 9.64735C12.6413 9.67957 12.6444 9.71393 12.6395 9.74764V12.0607C12.6444 12.0943 12.6413 12.1287 12.6305 12.161C12.6198 12.1932 12.6017 12.2225 12.5777 12.2466C12.5536 12.2707 12.5243 12.2888 12.492 12.2995C12.4597 12.3102 12.4254 12.3133 12.3917 12.3085H11.4004C11.3668 12.3133 11.3324 12.3102 11.3001 12.2995C11.2678 12.2888 11.2385 12.2707 11.2145 12.2466C11.1904 12.2225 11.1723 12.1932 11.1616 12.161C11.1509 12.1287 11.1478 12.0943 11.1526 12.0607C11.2212 11.6792 11.2488 11.2915 11.2352 10.9042Z" fill="white"/>
<path d="M5.12225 12.9697H13.7962C13.839 12.9726 13.8793 12.991 13.9097 13.0214C13.9401 13.0518 13.9585 13.0921 13.9614 13.1349V13.3002C13.9585 13.343 13.9401 13.3833 13.9097 13.4137C13.8793 13.4441 13.839 13.4625 13.7962 13.4654H5.12225C5.07938 13.4625 5.03903 13.4441 5.00865 13.4137C4.97827 13.3833 4.95993 13.343 4.95703 13.3002V13.1349C4.95993 13.0921 4.97827 13.0518 5.00865 13.0214C5.03903 12.991 5.07938 12.9726 5.12225 12.9697Z" fill="white"/>
</g>
<defs>
<clipPath id="clip0_13_67">
<rect width="19" height="19" fill="white"/>
</clipPath>
</defs>
</svg>
