<svg width="19" height="19" viewBox="0 0 19 19" fill="none" xmlns="http://www.w3.org/2000/svg">
<g clip-path="url(#clip0_13_188)">
<path d="M19 9.5C19 4.25329 14.7467 0 9.5 0C4.25329 0 0 4.25329 0 9.5C0 14.7467 4.25329 19 9.5 19C14.7467 19 19 14.7467 19 9.5Z" fill="#4898FF"/>
<path d="M13.0567 10.6688C12.2889 11.2006 11.3524 11.4597 10.4075 11.4018H8.19798V15H6V5.005H10.5463C11.4488 4.95902 12.3376 5.23166 13.0451 5.77128C13.7169 6.39519 14.0609 7.27597 13.9821 8.17008C14.0844 9.09462 13.7439 10.0137 13.0567 10.6688ZM11.3677 7.07063C11.0334 6.8353 10.6249 6.71769 10.2109 6.73746H8.19798V9.68044H10.1877C10.6056 9.70165 11.0172 9.57527 11.3446 9.32506C11.6406 9.02798 11.7919 8.62452 11.761 8.2145C11.8215 7.79527 11.6763 7.37281 11.3677 7.07063Z" fill="white"/>
</g>
<defs>
<clipPath id="clip0_13_188">
<rect width="19" height="19" fill="white"/>
</clipPath>
</defs>
</svg>
