<svg width="19" height="19" viewBox="0 0 19 19" fill="none" xmlns="http://www.w3.org/2000/svg">
<g clip-path="url(#clip0_13_302)">
<path d="M18.174 9.50008C18.174 4.70961 14.2906 0.826172 9.50008 0.826172C4.70961 0.826172 0.826172 4.70961 0.826172 9.50008C0.826172 14.2906 4.70961 18.174 9.50008 18.174C14.2906 18.174 18.174 14.2906 18.174 9.50008Z" fill="white" stroke="white" stroke-width="2" stroke-linejoin="round"/>
<path d="M18.174 9.50008C18.174 4.70961 14.2906 0.826172 9.50008 0.826172C4.70961 0.826172 0.826172 4.70961 0.826172 9.50008C0.826172 14.2906 4.70961 18.174 9.50008 18.174C14.2906 18.174 18.174 14.2906 18.174 9.50008Z" fill="#598017"/>
<path d="M11.336 11.7507V14.6615C11.336 14.9081 11.4284 14.9932 11.6699 14.9945H12.0803C12.3908 14.9945 12.466 14.9205 12.466 14.6097V8.89054C12.466 8.84737 12.466 8.80544 12.466 8.7672C12.4645 8.73259 12.4703 8.69807 12.4831 8.66587C12.4959 8.63367 12.5153 8.60452 12.54 8.58032C12.5648 8.55612 12.5943 8.53741 12.6268 8.5254C12.6593 8.5134 12.6939 8.50838 12.7284 8.51066C12.8393 8.51066 12.9502 8.51066 13.0611 8.51066C13.3302 8.5258 13.5997 8.49066 13.8559 8.40706C14.213 8.28662 14.5193 8.04959 14.7256 7.734C14.932 7.41842 15.0264 7.0426 14.9937 6.66688C14.961 6.29115 14.8031 5.93732 14.5454 5.66219C14.2876 5.38706 13.945 5.20658 13.5725 5.14974C13.5157 5.14765 13.4611 5.12734 13.4167 5.09181C13.3724 5.05627 13.3406 5.0074 13.3261 4.9524C13.2103 4.67259 13.0147 4.43309 12.7639 4.26374C12.513 4.09439 12.2179 4.00269 11.9153 4.00006C11.6127 3.99743 11.316 4.08399 11.0623 4.24895C10.8085 4.41391 10.6089 4.64998 10.4882 4.92773C10.4702 4.98979 10.4336 5.04483 10.3834 5.08541C10.3331 5.12599 10.2716 5.15017 10.2072 5.15467C9.82702 5.21737 9.48 5.4093 9.22463 5.69814C8.96926 5.98699 8.82114 6.35509 8.80522 6.74046C8.78931 7.12583 8.90657 7.50492 9.13725 7.81387C9.36793 8.12282 9.69794 8.34277 10.0717 8.43666C10.3693 8.48997 10.6715 8.51352 10.9737 8.50696C11.2645 8.51806 11.3434 8.5822 11.3434 8.87081L11.336 11.7507ZM7.25353 11.6089H9.54799C9.82648 11.6089 9.92876 11.5077 9.92876 11.2315C9.92876 10.6333 9.92876 10.0351 9.92876 9.43569C9.92876 9.17545 9.82155 9.06568 9.55908 9.06568H4.94306C4.68305 9.06568 4.57338 9.17421 4.57338 9.43569V11.2179C4.57338 11.5139 4.67073 11.6113 4.96277 11.6113L7.25353 11.6089ZM4.85064 13.5823C4.85064 13.9128 4.85064 14.2199 4.85064 14.527C4.84549 14.5854 4.85243 14.6441 4.87102 14.6997C4.88961 14.7552 4.91946 14.8063 4.95869 14.8498C4.99792 14.8932 5.04569 14.9281 5.09901 14.9522C5.15233 14.9763 5.21005 14.9892 5.26856 14.9899C5.32706 14.9907 5.3851 14.9794 5.43903 14.9567C5.49296 14.9339 5.54163 14.9003 5.58198 14.8579C5.62233 14.8155 5.6535 14.7652 5.67354 14.7102C5.69358 14.6552 5.70205 14.5966 5.69843 14.5381C5.69843 14.268 5.69843 13.9991 5.69843 13.7303C5.69843 13.6846 5.69843 13.6402 5.70582 13.5958H8.79878C8.79878 13.914 8.78892 14.2212 8.79878 14.5283C8.80656 14.6456 8.84525 14.7588 8.91091 14.8563C8.96396 14.9219 9.03696 14.9684 9.11882 14.9887C9.20068 15.0089 9.2869 15.0019 9.36438 14.9686C9.44638 14.9412 9.51744 14.8882 9.56712 14.8173C9.6168 14.7465 9.64249 14.6616 9.64041 14.5751C9.64041 14.2927 9.64041 14.0102 9.64041 13.7278C9.64041 13.6834 9.64041 13.639 9.64903 13.5823C9.71804 13.5823 9.77226 13.5823 9.82771 13.5823C9.97157 13.5737 10.1092 13.5207 10.2218 13.4305C10.3343 13.3404 10.4162 13.2176 10.4562 13.0791C10.4974 12.9384 10.4939 12.7885 10.4462 12.6499C10.3985 12.5114 10.309 12.3911 10.19 12.3057C10.0473 12.2099 9.87731 12.1631 9.70572 12.1725H4.7767C4.72991 12.1701 4.68302 12.1701 4.63623 12.1725C4.45848 12.1896 4.29388 12.2738 4.1758 12.4078C4.05772 12.5419 3.99499 12.7159 4.00031 12.8946C4.00564 13.0732 4.07863 13.2431 4.2045 13.3699C4.33036 13.4967 4.49967 13.5709 4.67812 13.5773C4.73111 13.5835 4.78163 13.581 4.85064 13.581V13.5823Z" fill="white"/>
</g>
<defs>
<clipPath id="clip0_13_302">
<rect width="19" height="19" fill="white"/>
</clipPath>
</defs>
</svg>
