<svg width="19" height="19" viewBox="0 0 19 19" fill="none" xmlns="http://www.w3.org/2000/svg">
<g clip-path="url(#clip0_13_248)">
<path d="M18 9.5C18 4.80558 14.1944 1 9.5 1C4.80558 1 1 4.80558 1 9.5C1 14.1944 4.80558 18 9.5 18C14.1944 18 18 14.1944 18 9.5Z" fill="white" stroke="white" stroke-width="2" stroke-linejoin="round"/>
<path d="M18 9.5C18 4.80558 14.1944 1 9.5 1C4.80558 1 1 4.80558 1 9.5C1 14.1944 4.80558 18 9.5 18C14.1944 18 18 14.1944 18 9.5Z" fill="#BA272A"/>
<path d="M12.835 6.90039C14.0716 6.90039 15.0996 7.79256 15.0996 9C15.0996 10.2072 14.0716 11.0996 12.835 11.0996H6.16504C4.92811 11.0994 3.90039 10.2073 3.90039 9C3.90039 7.79268 4.92811 6.90059 6.16504 6.90039H12.835ZM9.62891 10.4297H12.8359C13.6632 10.4296 14.333 9.78407 14.333 9C14.333 8.21594 13.663 7.57043 12.8359 7.57031H9.62891V10.4297Z" fill="white" stroke="white" stroke-width="0.2"/>
</g>
<defs>
<clipPath id="clip0_13_248">
<rect width="19" height="19" fill="white"/>
</clipPath>
</defs>
</svg>
