<svg width="19" height="19" viewBox="0 0 19 19" fill="none" xmlns="http://www.w3.org/2000/svg">
<g clip-path="url(#clip0_13_243)">
<path d="M18 9.5C18 4.80558 14.1944 1 9.5 1C4.80558 1 1 4.80558 1 9.5C1 14.1944 4.80558 18 9.5 18C14.1944 18 18 14.1944 18 9.5Z" fill="white" stroke="white" stroke-width="2" stroke-linejoin="round"/>
<path d="M18 9.5C18 4.80558 14.1944 1 9.5 1C4.80558 1 1 4.80558 1 9.5C1 14.1944 4.80558 18 9.5 18C14.1944 18 18 14.1944 18 9.5Z" fill="#597FA6"/>
<path d="M9.52 4L8 6V7H11V6L9.52 4ZM8 8L6 9V14H13V9L11 8H8ZM15 9.5V14H14V9.5C14 9.2239 14.2239 9 14.5 9C14.7761 9 15 9.2239 15 9.5ZM5 9.5V14H4V9.5C4 9.2239 4.2239 9 4.5 9C4.7761 9 5 9.2239 5 9.5Z" fill="white"/>
</g>
<defs>
<clipPath id="clip0_13_243">
<rect width="19" height="19" fill="white"/>
</clipPath>
</defs>
</svg>
