<svg width="19" height="19" viewBox="0 0 19 19" fill="none" xmlns="http://www.w3.org/2000/svg">
<g clip-path="url(#clip0_13_206)">
<path d="M18 9.5C18 4.80558 14.1944 1 9.5 1C4.80558 1 1 4.80558 1 9.5C1 14.1944 4.80558 18 9.5 18C14.1944 18 18 14.1944 18 9.5Z" fill="white" stroke="white" stroke-width="2" stroke-linejoin="round"/>
<path d="M18 9.5C18 4.80558 14.1944 1 9.5 1C4.80558 1 1 4.80558 1 9.5C1 14.1944 4.80558 18 9.5 18C14.1944 18 18 14.1944 18 9.5Z" fill="#598017"/>
<path d="M5.00032 4.79C5.12892 4.2529 5.66862 3.9217 6.20572 4.0503C6.74282 4.1789 7.07392 4.7186 6.94532 5.2557C6.81862 5.7849 6.29202 6.1156 5.76032 6C5.22062 5.8826 4.87832 5.35 4.99572 4.8103C4.99712 4.8035 4.99872 4.7968 5.00032 4.79ZM14.8503 12.16L12.8503 10.16C12.7603 10.0612 12.6339 10.0034 12.5003 10H12.3703L10.5003 10.55V8C10.7463 8.0083 10.9603 7.8328 11.0003 7.59C11.0561 7.3225 10.8869 7.0598 10.6203 7H10.5003V4H10.2803V7L5.82032 7.55C5.42042 7.6111 5.09682 7.9072 5.00032 8.3C4.96912 8.4416 4.96912 8.5884 5.00032 8.73L5.81032 11.86C5.91152 12.1954 6.18092 12.4533 6.52032 12.54C6.67162 12.5757 6.82902 12.5757 6.98032 12.54H7.00032L10.2903 11.65V13.27L7.29032 14.01C7.01422 14.0956 6.85972 14.3889 6.94532 14.665C7.03092 14.9411 7.32422 15.0956 7.60032 15.01C7.65692 15.0151 7.71372 15.0151 7.77032 15.01L11.7703 14.01C12.0464 13.9272 12.2031 13.6361 12.1203 13.36C12.0375 13.0839 11.7464 12.9272 11.4703 13.01L11.2703 13L10.5003 13.22V11.58L12.3303 11.07L14.1403 12.85C14.3161 13.063 14.6312 13.0932 14.8442 12.9174C15.0572 12.7416 15.0874 12.4265 14.9116 12.2135C14.8959 12.1945 14.8787 12.1766 14.8603 12.16H14.8503ZM10.2803 10.61L8.21032 11.07L7.50032 8.33L10.2803 8V10.61Z" fill="white"/>
</g>
<defs>
<clipPath id="clip0_13_206">
<rect width="19" height="19" fill="white"/>
</clipPath>
</defs>
</svg>
