<svg width="19" height="19" viewBox="0 0 19 19" fill="none" xmlns="http://www.w3.org/2000/svg">
<g clip-path="url(#clip0_13_268)">
<path d="M18 9.5C18 4.80558 14.1944 1 9.5 1C4.80558 1 1 4.80558 1 9.5C1 14.1944 4.80558 18 9.5 18C14.1944 18 18 14.1944 18 9.5Z" fill="white" stroke="white" stroke-width="2" stroke-linejoin="round"/>
<path d="M18 9.5C18 4.80558 14.1944 1 9.5 1C4.80558 1 1 4.80558 1 9.5C1 14.1944 4.80558 18 9.5 18C14.1944 18 18 14.1944 18 9.5Z" fill="#299091"/>
<path d="M8.5 4.5L9 5.5H12L12.5 4.5H8.5ZM9 6V7C9 7.8284 9.6716 8.5 10.5 8.5C11.3284 8.5 12 7.8284 12 7V6H9ZM5.75 7C5 7 5 7.75 5 7.75V10.75C5.0006 11.256 5.4918 11.6163 5.9746 11.4648L8 10.8262V14L12 9H9C9 9 8.8055 9 8.5762 9.0723L6.5 9.7266V7.75C6.5 7.75 6.5 7 5.75 7ZM12.7715 9.3887L9 14H13V10C13 9.7648 12.9064 9.5591 12.7715 9.3887Z" fill="white"/>
</g>
<defs>
<clipPath id="clip0_13_268">
<rect width="19" height="19" fill="white"/>
</clipPath>
</defs>
</svg>
