<svg width="19" height="19" viewBox="0 0 19 19" fill="none" xmlns="http://www.w3.org/2000/svg">
<g clip-path="url(#clip0_13_310)">
<path d="M18 9.5C18 4.80558 14.1944 1 9.5 1C4.80558 1 1 4.80558 1 9.5C1 14.1944 4.80558 18 9.5 18C14.1944 18 18 14.1944 18 9.5Z" fill="white" stroke="white" stroke-width="2" stroke-linejoin="round"/>
<path d="M18 9.5C18 4.80558 14.1944 1 9.5 1C4.80558 1 1 4.80558 1 9.5C1 14.1944 4.80558 18 9.5 18C14.1944 18 18 14.1944 18 9.5Z" fill="#299091"/>
<path d="M14 9.5V13C14 13.5523 13.5523 14 13 14H6C5.4477 14 5 13.5523 5 13V9.5C5 9.2239 5.2239 9 5.5 9C5.5692 8.9848 5.6408 8.9848 5.71 9L9.5 11L13.3 9C13.366 8.9862 13.434 8.9862 13.5 9C13.7761 9 14 9.2239 14 9.5ZM5.25 6.92L5.33 7L9.5 9L13.69 7H13.75C13.9296 6.9019 14.0292 6.7025 14 6.5C14 6.2239 13.7761 6 13.5 6H5.5C5.2239 6 5 6.2239 5 6.5C5.0026 6.6745 5.0978 6.8345 5.25 6.92Z" fill="white"/>
</g>
<defs>
<clipPath id="clip0_13_310">
<rect width="19" height="19" fill="white"/>
</clipPath>
</defs>
</svg>
