<svg width="19" height="19" viewBox="0 0 19 19" fill="none" xmlns="http://www.w3.org/2000/svg">
<g clip-path="url(#clip0_13_201)">
<path d="M18 9.5C18 4.80558 14.1944 1 9.5 1C4.80558 1 1 4.80558 1 9.5C1 14.1944 4.80558 18 9.5 18C14.1944 18 18 14.1944 18 9.5Z" fill="white" stroke="white" stroke-width="2" stroke-linejoin="round"/>
<path d="M18 9.5C18 4.80558 14.1944 1 9.5 1C4.80558 1 1 4.80558 1 9.5C1 14.1944 4.80558 18 9.5 18C14.1944 18 18 14.1944 18 9.5Z" fill="#299091"/>
<path d="M5.375 4C5.27554 4 5.18016 4.04052 5.10984 4.11265C5.03951 4.18478 5 4.28261 5 4.38462C5 4.48662 5.03951 4.58445 5.10984 4.65658C5.18016 4.72871 5.27554 4.76923 5.375 4.76923H5.75V7.07692H5.375C5.16725 7.07692 5 7.24846 5 7.46154V10.5385C5 10.7515 5.16725 10.9231 5.375 10.9231H5.75V13.2308H5.375C5.27554 13.2308 5.18016 13.2713 5.10984 13.3434C5.03951 13.4155 5 13.5134 5 13.6154C5 13.7174 5.03951 13.8152 5.10984 13.8873C5.18016 13.9595 5.27554 14 5.375 14H13.625C13.7245 14 13.8198 13.9595 13.8902 13.8873C13.9605 13.8152 14 13.7174 14 13.6154C14 13.5134 13.9605 13.4155 13.8902 13.3434C13.8198 13.2713 13.7245 13.2308 13.625 13.2308H13.25V4.76923H13.625C13.7245 4.76923 13.8198 4.72871 13.8902 4.65658C13.9605 4.58445 14 4.48662 14 4.38462C14 4.28261 13.9605 4.18478 13.8902 4.11265C13.8198 4.04052 13.7245 4 13.625 4H5.375ZM6.5 4.76923H8V7.07692H6.5V4.76923ZM8.75 4.76923H10.25V13.2308H8.75V10.9231H9.125C9.33275 10.9231 9.5 10.7515 9.5 10.5385V7.46154C9.5 7.24846 9.33275 7.07692 9.125 7.07692H8.75V4.76923ZM11 4.76923H12.5V13.2308H11V4.76923ZM7.25 7.84615C7.41682 7.84612 7.57888 7.90314 7.71057 8.00817C7.84225 8.11321 7.93603 8.26028 7.97708 8.42611C8.01812 8.59195 8.00409 8.76709 7.9372 8.92382C7.87031 9.08056 7.75438 9.20996 7.60775 9.29154C7.61525 9.32231 7.625 9.35154 7.625 9.38462V10.1538C7.625 10.2559 7.58549 10.3537 7.51516 10.4258C7.44484 10.4979 7.34946 10.5385 7.25 10.5385C7.15054 10.5385 7.05516 10.4979 6.98484 10.4258C6.91451 10.3537 6.875 10.2559 6.875 10.1538V9.38462C6.875 9.35154 6.88475 9.32231 6.89225 9.29154C6.74562 9.20996 6.62969 9.08056 6.5628 8.92382C6.49591 8.76709 6.48188 8.59195 6.52292 8.42611C6.56397 8.26028 6.65775 8.11321 6.78943 8.00817C6.92112 7.90314 7.08318 7.84612 7.25 7.84615ZM6.5 10.9231H8V13.2308H6.5V10.9231Z" fill="white"/>
</g>
<defs>
<clipPath id="clip0_13_201">
<rect width="19" height="19" fill="white"/>
</clipPath>
</defs>
</svg>
