<svg width="19" height="19" viewBox="0 0 19 19" fill="none" xmlns="http://www.w3.org/2000/svg">
<g clip-path="url(#clip0_13_297)">
<path d="M18 9.5C18 4.80558 14.1944 1 9.5 1C4.80558 1 1 4.80558 1 9.5C1 14.1944 4.80558 18 9.5 18C14.1944 18 18 14.1944 18 9.5Z" fill="white" stroke="white" stroke-width="2" stroke-linejoin="round"/>
<path d="M18 9.5C18 4.80558 14.1944 1 9.5 1C4.80558 1 1 4.80558 1 9.5C1 14.1944 4.80558 18 9.5 18C14.1944 18 18 14.1944 18 9.5Z" fill="#875C1B"/>
<path d="M12.5 13V12H14V10H11.5V9H14V7H12.5V6H14V5H10V14H14V13H12.5ZM8 11H5V5H8V11ZM8 12L6.5 14L5 12H8Z" fill="white"/>
</g>
<defs>
<clipPath id="clip0_13_297">
<rect width="19" height="19" fill="white"/>
</clipPath>
</defs>
</svg>
