<svg width="19" height="19" viewBox="0 0 19 19" fill="none" xmlns="http://www.w3.org/2000/svg">
<g clip-path="url(#clip0_13_59)">
<path d="M18 9.5C18 4.80558 14.1944 1 9.5 1C4.80558 1 1 4.80558 1 9.5C1 14.1944 4.80558 18 9.5 18C14.1944 18 18 14.1944 18 9.5Z" fill="white" stroke="white" stroke-width="2" stroke-linejoin="round"/>
<path d="M18 9.5C18 4.80558 14.1944 1 9.5 1C4.80558 1 1 4.80558 1 9.5C1 14.1944 4.80558 18 9.5 18C14.1944 18 18 14.1944 18 9.5Z" fill="#299091"/>
<path d="M7.5 11.5H8V10.75H12V11.5H12.5V9.5C12.5 9.225 12.4022 8.98967 12.2065 8.794C12.0108 8.59833 11.7753 8.50033 11.5 8.5H9.75V10.25H8V8H7.5V11.5ZM8.875 10C9.05 10 9.198 9.9395 9.319 9.8185C9.44 9.6975 9.50033 9.54967 9.5 9.375C9.49967 9.20033 9.43917 9.05233 9.3185 8.931C9.19783 8.80967 9.05 8.74933 8.875 8.75C8.7 8.75067 8.552 8.81117 8.431 8.9315C8.31 9.05183 8.24967 9.19967 8.25 9.375C8.25033 9.55033 8.31083 9.69833 8.4315 9.819C8.55217 9.93967 8.7 10 8.875 10ZM6 13V7L10 4L14 7V13H6Z" fill="white"/>
</g>
<defs>
<clipPath id="clip0_13_59">
<rect width="19" height="19" fill="white"/>
</clipPath>
</defs>
</svg>
