<svg width="19" height="19" viewBox="0 0 19 19" fill="none" xmlns="http://www.w3.org/2000/svg">
<g clip-path="url(#clip0_13_51)">
<path d="M18 9.5C18 4.80558 14.1944 1 9.5 1C4.80558 1 1 4.80558 1 9.5C1 14.1944 4.80558 18 9.5 18C14.1944 18 18 14.1944 18 9.5Z" fill="white" stroke="white" stroke-width="2" stroke-linejoin="round"/>
<path d="M18 9.5C18 4.80558 14.1944 1 9.5 1C4.80558 1 1 4.80558 1 9.5C1 14.1944 4.80558 18 9.5 18C14.1944 18 18 14.1944 18 9.5Z" fill="#1B78F2"/>
<path d="M13.6005 8H12.4905L12.2005 6.27C12.0837 5.7303 11.6743 5.3015 11.1405 5.16C10.8799 5.0669 10.6069 5.013 10.3305 5H8.67051C8.39841 5.0075 8.12891 5.0547 7.87051 5.14C7.32741 5.2815 6.91221 5.7199 6.80051 6.27L6.51051 8H5.34051C5.13621 8.0055 4.97511 8.1755 4.98061 8.3798C4.98161 8.4173 4.98831 8.4545 5.00051 8.49L6.21051 13.19C6.34591 13.6605 6.77111 13.9885 7.26051 14H11.7405C12.2336 13.9928 12.664 13.6639 12.8005 13.19L14.0005 8.49C14.0687 8.2974 13.9679 8.0859 13.7753 8.0177C13.7193 7.9978 13.6593 7.9918 13.6005 8ZM7.27051 8L7.54051 6.39C7.60151 6.1212 7.81871 5.9159 8.09051 5.87C8.27511 5.8109 8.46681 5.7772 8.66051 5.77H10.3305C10.5242 5.7772 10.7159 5.8109 10.9005 5.87C11.1723 5.9159 11.3895 6.1212 11.4505 6.39L11.7305 8H7.27051Z" fill="white"/>
</g>
<defs>
<clipPath id="clip0_13_51">
<rect width="19" height="19" fill="white"/>
</clipPath>
</defs>
</svg>
