<svg width="19" height="19" viewBox="0 0 19 19" fill="none" xmlns="http://www.w3.org/2000/svg">
<g clip-path="url(#clip0_46_149)">
<path d="M18 9.5C18 4.80558 14.1944 1 9.5 1C4.80558 1 1 4.80558 1 9.5C1 14.1944 4.80558 18 9.5 18C14.1944 18 18 14.1944 18 9.5Z" fill="white" stroke="white" stroke-width="2" stroke-linejoin="round"/>
<path d="M18 9.5C18 4.80558 14.1944 1 9.5 1C4.80558 1 1 4.80558 1 9.5C1 14.1944 4.80558 18 9.5 18C14.1944 18 18 14.1944 18 9.5Z" fill="#1B78F2"/>
<path d="M13.6 8H12.49L12.2 6.27C12.0832 5.7303 11.6738 5.3015 11.14 5.16C10.8794 5.0669 10.6064 5.013 10.33 5H8.67002C8.39792 5.0075 8.12842 5.0547 7.87002 5.14C7.32692 5.2815 6.91172 5.7199 6.80002 6.27L6.51002 8H5.34002C5.13572 8.0055 4.97462 8.1755 4.98012 8.3798C4.98112 8.4173 4.98782 8.4545 5.00002 8.49L6.21002 13.19C6.34542 13.6605 6.77062 13.9885 7.26002 14H11.74C12.2331 13.9928 12.6635 13.6639 12.8 13.19L14 8.49C14.0682 8.2974 13.9674 8.0859 13.7748 8.0177C13.7188 7.9978 13.6588 7.9918 13.6 8ZM7.27002 8L7.54002 6.39C7.60102 6.1212 7.81822 5.9159 8.09002 5.87C8.27462 5.8109 8.46632 5.7772 8.66002 5.77H10.33C10.5237 5.7772 10.7154 5.8109 10.9 5.87C11.1718 5.9159 11.389 6.1212 11.45 6.39L11.73 8H7.27002Z" fill="white"/>
</g>
<defs>
<clipPath id="clip0_46_149">
<rect width="19" height="19" fill="white"/>
</clipPath>
</defs>
</svg>
