<svg width="19" height="19" viewBox="0 0 19 19" fill="none" xmlns="http://www.w3.org/2000/svg">
<g clip-path="url(#clip0_46_154)">
<path d="M18 9.5C18 4.80558 14.1944 1 9.5 1C4.80558 1 1 4.80558 1 9.5C1 14.1944 4.80558 18 9.5 18C14.1944 18 18 14.1944 18 9.5Z" fill="white" stroke="white" stroke-width="2" stroke-linejoin="round"/>
<path d="M18 9.5C18 4.80558 14.1944 1 9.5 1C4.80558 1 1 4.80558 1 9.5C1 14.1944 4.80558 18 9.5 18C14.1944 18 18 14.1944 18 9.5Z" fill="#299091"/>
<path d="M9 4V7V7.0117C6.7922 7.1089 5.0876 7.8182 5 8.6816C5 8.6816 5 11.141 5 12.3632C4.9995 13.2672 7.0143 14 9.5 14C11.9857 14 14.0005 13.2672 14 12.3633V8.6816C13.9122 7.8177 12.2093 7.1082 10 7.0117V6.5723L12.5 5.5L9 4ZM5.8184 9.752C6.1366 9.9302 6.5373 10.0838 7 10.2051V12.6641C6.2493 12.4283 5.8213 12.0972 5.8184 11.75V9.752ZM13.1816 9.7559V11.75C13.1803 12.0979 12.7521 12.4298 12 12.666V10.2031C12.4614 10.0836 12.862 9.932 13.1816 9.7559ZM8 10.3984C8.4815 10.4652 8.9888 10.4995 9.5 10.5C10.0112 10.4995 10.5185 10.4652 11 10.3984V12.8906C10.5282 12.9624 10.0171 12.9997 9.5 13C8.9829 12.9997 8.4718 12.9624 8 12.8906V10.3984Z" fill="white"/>
</g>
<defs>
<clipPath id="clip0_46_154">
<rect width="19" height="19" fill="white"/>
</clipPath>
</defs>
</svg>
