<svg width="23" height="23" viewBox="0 0 23 23" fill="none" xmlns="http://www.w3.org/2000/svg">
<g clip-path="url(#clip0_46_168)">
<path d="M22 11.5C22 5.70101 17.299 1 11.5 1C5.70101 1 1 5.70101 1 11.5C1 17.299 5.70101 22 11.5 22C17.299 22 22 17.299 22 11.5Z" fill="white" stroke="white" stroke-width="2" stroke-linejoin="round"/>
<path d="M22 11.5C22 5.70101 17.299 1 11.5 1C5.70101 1 1 5.70101 1 11.5C1 17.299 5.70101 22 11.5 22C17.299 22 22 17.299 22 11.5Z" fill="#5E758D"/>
<path d="M13.6 12.7998C13.8 12.6998 14 12.6998 14.2 12.5998C14.4329 12.5576 14.6725 12.5719 14.8987 12.6415C15.1249 12.7111 15.3311 12.834 15.5 12.9998L15.8 13.2998C15.9525 13.4217 16.1207 13.5226 16.3 13.5998C16.3519 13.6033 16.4007 13.6255 16.4375 13.6623C16.4743 13.6991 16.4965 13.7479 16.5 13.7998V14.1998C16.4965 14.2517 16.4743 14.3006 16.4375 14.3373C16.4007 14.3741 16.3519 14.3963 16.3 14.3998C15.9686 14.3527 15.657 14.2142 15.4 13.9998L15 13.5998C14.8532 13.4557 14.6557 13.3749 14.45 13.3749C14.2443 13.3749 14.0468 13.4557 13.9 13.5998C13.8 13.5998 13.7 13.7998 13.6 13.8998C13.3721 14.1367 13.0739 14.2937 12.7497 14.3478C12.4254 14.4018 12.0924 14.3499 11.8 14.1998C11.6102 14.0982 11.4407 13.9627 11.3 13.7998C11.2 13.6998 11.2 13.5998 11.1 13.5998C10.9532 13.4557 10.7557 13.3749 10.55 13.3749C10.3443 13.3749 10.1468 13.4557 10 13.5998C9.84951 13.6746 9.71395 13.7763 9.6 13.8998C9.46457 14.042 9.30167 14.1552 9.12118 14.2326C8.94069 14.3099 8.74637 14.3498 8.55 14.3498C8.35363 14.3498 8.15931 14.3099 7.97882 14.2326C7.79833 14.1552 7.63543 14.042 7.5 13.8998C7.34951 13.825 7.21395 13.7233 7.1 13.5998C7 13.4998 6.8 13.3998 6.7 13.2998C6.64811 13.2963 6.59926 13.2741 6.56248 13.2373C6.52571 13.2006 6.50351 13.1517 6.5 13.0998V12.6998C6.50351 12.6479 6.52571 12.5991 6.56248 12.5623C6.59926 12.5255 6.64811 12.5033 6.7 12.4998C6.9803 12.6436 7.24792 12.8109 7.5 12.9998L7.9 13.3998C8.04678 13.5439 8.24428 13.6247 8.45 13.6247C8.65572 13.6247 8.85322 13.5439 9 13.3998C9.2 13.2998 9.3 13.0998 9.5 12.9998V8.29981C9.51186 8.18073 9.47665 8.06174 9.40189 7.96829C9.32714 7.87485 9.21878 7.81437 9.1 7.79981C8.9806 7.76313 8.85166 7.77383 8.73994 7.82969C8.62822 7.88555 8.5423 7.98228 8.5 8.09981C8.5 8.19981 8.4 8.29981 8.2 8.29981H7.9C7.7 8.29981 7.7 8.19981 7.7 8.09981C7.7506 7.85359 7.87231 7.62761 8.05006 7.44987C8.2278 7.27212 8.45378 7.15041 8.7 7.09981C8.85819 7.0674 9.02136 7.06797 9.17931 7.10149C9.33727 7.135 9.48661 7.20074 9.61801 7.29459C9.74941 7.38845 9.86003 7.5084 9.94296 7.64695C10.0259 7.7855 10.0794 7.93966 10.1 8.09981V8.89981H12.8V7.99981C12.7854 7.88103 12.725 7.77267 12.6315 7.69791C12.5381 7.62316 12.4191 7.58794 12.3 7.59981C12.2 7.59981 12 7.69981 11.9 7.99981C11.9 8.19981 11.7 8.29981 11.6 8.19981H11.3C11.2 8.19981 11.2 8.09981 11.1 7.99981V7.89981C11.1178 7.73486 11.1684 7.57514 11.2488 7.43004C11.3292 7.28493 11.4378 7.15738 11.5683 7.05488C11.6987 6.95239 11.8484 6.87702 12.0084 6.83321C12.1684 6.78941 12.3355 6.77805 12.5 6.79981C12.8288 6.86329 13.1263 7.03623 13.3442 7.29046C13.5622 7.54468 13.6875 7.86521 13.7 8.19981V12.6998L13.6 12.7998ZM12.7 11.7998H10.5V12.5998C11.1 12.4998 11.3 12.6998 11.7 13.1998L12 13.4998C12.0847 13.5633 12.1834 13.6055 12.2878 13.6229C12.3922 13.6403 12.4993 13.6324 12.6 13.5998C12.6265 13.5998 12.652 13.5893 12.6707 13.5705C12.6895 13.5518 12.7 13.5263 12.7 13.4998V11.7998ZM12.6 9.89981H10.5V10.7998H12.6V9.89981Z" fill="white"/>
<path d="M6.4999 14.7003C6.4999 14.4003 6.4999 14.3003 6.7999 14.4003C7.06335 14.4722 7.30422 14.6099 7.4999 14.8003L7.8999 15.2003C8.04669 15.3445 8.24418 15.4252 8.4499 15.4252C8.65562 15.4252 8.85312 15.3445 8.9999 15.2003L9.2999 14.9003C9.5928 14.621 9.97685 14.457 10.3812 14.4386C10.7855 14.4202 11.1829 14.5487 11.4999 14.8003L11.7999 15.1003C11.9659 15.2459 12.1791 15.3262 12.3999 15.3262C12.6207 15.3262 12.8339 15.2459 12.9999 15.1003L13.3999 14.7003C13.6961 14.4578 14.0671 14.3252 14.4499 14.3252C14.8327 14.3252 15.2037 14.4578 15.4999 14.7003L15.7999 15.0003C15.9524 15.1222 16.1206 15.2231 16.2999 15.3003C16.3518 15.3039 16.4006 15.326 16.4374 15.3628C16.4742 15.3996 16.4964 15.4485 16.4999 15.5003V15.8003C16.4999 16.0003 16.3999 16.0003 16.2999 16.0003C15.9685 15.9533 15.6569 15.8148 15.3999 15.6003L14.9999 15.2003C14.8531 15.0562 14.6556 14.9755 14.4499 14.9755C14.2442 14.9755 14.0467 15.0562 13.8999 15.2003L13.4999 15.6003C13.2649 15.7897 12.9857 15.9165 12.6885 15.969C12.3912 16.0214 12.0856 15.9978 11.7999 15.9003C11.6101 15.7988 11.4406 15.6632 11.2999 15.5003L10.9999 15.2003C10.8531 15.0562 10.6556 14.9755 10.4499 14.9755C10.2442 14.9755 10.0467 15.0562 9.8999 15.2003L9.4999 15.6003C9.20367 15.8428 8.83268 15.9752 8.4499 15.9752C8.06712 15.9752 7.69614 15.8428 7.3999 15.6003L7.0999 15.3003C6.94738 15.1785 6.77922 15.0776 6.5999 15.0003C6.54801 14.9968 6.49916 14.9746 6.46238 14.9379C6.42561 14.9011 6.40341 14.8522 6.3999 14.8003V14.7003H6.4999Z" fill="white"/>
</g>
<defs>
<clipPath id="clip0_46_168">
<rect width="23" height="23" fill="white"/>
</clipPath>
</defs>
</svg>
