<svg width="19" height="19" viewBox="0 0 19 19" fill="none" xmlns="http://www.w3.org/2000/svg">
<g clip-path="url(#clip0_13_104)">
<path d="M18.174 9.50008C18.174 4.70961 14.2906 0.826172 9.50008 0.826172C4.70961 0.826172 0.826172 4.70961 0.826172 9.50008C0.826172 14.2906 4.70961 18.174 9.50008 18.174C14.2906 18.174 18.174 14.2906 18.174 9.50008Z" fill="white" stroke="white" stroke-width="2" stroke-linejoin="round"/>
<path d="M18.174 9.50008C18.174 4.70961 14.2906 0.826172 9.50008 0.826172C4.70961 0.826172 0.826172 4.70961 0.826172 9.50008C0.826172 14.2906 4.70961 18.174 9.50008 18.174C14.2906 18.174 18.174 14.2906 18.174 9.50008Z" fill="#5E758D"/>
<path d="M11.2353 10.5738C11.4006 10.4912 11.5658 10.4912 11.731 10.4086C11.9234 10.3737 12.1213 10.3855 12.3082 10.443C12.495 10.5005 12.6654 10.602 12.8049 10.739L13.0527 10.9868C13.1787 11.0875 13.3177 11.1709 13.4658 11.2347C13.5086 11.2376 13.549 11.2559 13.5794 11.2863C13.6098 11.3167 13.6281 11.357 13.631 11.3999V11.7303C13.6281 11.7732 13.6098 11.8136 13.5794 11.8439C13.549 11.8743 13.5086 11.8926 13.4658 11.8955C13.192 11.8566 12.9346 11.7422 12.7223 11.5651L12.3919 11.2347C12.2706 11.1156 12.1074 11.0489 11.9375 11.0489C11.7676 11.0489 11.6044 11.1156 11.4832 11.2347C11.4006 11.2347 11.3179 11.3999 11.2353 11.4825C11.0471 11.6782 10.8007 11.8079 10.5329 11.8526C10.265 11.8972 9.98993 11.8543 9.74838 11.7303C9.59159 11.6464 9.45157 11.5344 9.33534 11.3999C9.25273 11.3173 9.25273 11.2347 9.17012 11.2347C9.04885 11.1156 8.8857 11.0489 8.71577 11.0489C8.54584 11.0489 8.38269 11.1156 8.26142 11.2347C8.1371 11.2965 8.02512 11.3805 7.93099 11.4825C7.81911 11.6 7.68454 11.6935 7.53544 11.7574C7.38634 11.8213 7.22581 11.8542 7.0636 11.8542C6.90138 11.8542 6.74085 11.8213 6.59175 11.7574C6.44265 11.6935 6.30808 11.6 6.1962 11.4825C6.07189 11.4207 5.9599 11.3367 5.86577 11.2347C5.78316 11.1521 5.61794 11.0694 5.53533 10.9868C5.49247 10.9839 5.45211 10.9656 5.42173 10.9352C5.39136 10.9049 5.37302 10.8645 5.37012 10.8216V10.4912C5.37302 10.4483 5.39136 10.408 5.42173 10.3776C5.45211 10.3472 5.49247 10.3289 5.53533 10.326C5.76689 10.4448 5.98796 10.583 6.1962 10.739L6.52664 11.0694C6.64789 11.1885 6.81104 11.2552 6.98099 11.2552C7.15093 11.2552 7.31408 11.1885 7.43533 11.0694C7.60055 10.9868 7.68316 10.8216 7.84838 10.739V6.85641C7.85818 6.75804 7.82909 6.65974 7.76733 6.58254C7.70558 6.50535 7.61607 6.45539 7.51794 6.44336C7.41931 6.41306 7.31279 6.4219 7.2205 6.46805C7.12821 6.51419 7.05723 6.5941 7.02229 6.69119C7.02229 6.7738 6.93968 6.85641 6.77446 6.85641H6.52664C6.36142 6.85641 6.36142 6.7738 6.36142 6.69119C6.40322 6.48779 6.50376 6.30111 6.6506 6.15428C6.79743 6.00745 6.98411 5.9069 7.18751 5.8651C7.31819 5.83833 7.45298 5.8388 7.58346 5.86649C7.71395 5.89417 7.83732 5.94848 7.94586 6.02601C8.05441 6.10354 8.14579 6.20263 8.2143 6.31709C8.28282 6.43154 8.32701 6.55889 8.34403 6.69119V7.35206H10.5745V6.60858C10.5624 6.51046 10.5125 6.42094 10.4353 6.35918C10.3581 6.29743 10.2598 6.26834 10.1614 6.27815C10.0788 6.27815 9.9136 6.36075 9.83099 6.60858C9.83099 6.7738 9.66577 6.85641 9.58316 6.7738H9.33534C9.25273 6.7738 9.25273 6.69119 9.17012 6.60858V6.52597C9.18482 6.38971 9.22662 6.25777 9.29304 6.1379C9.35946 6.01803 9.44917 5.91266 9.55697 5.82799C9.6647 5.74332 9.78836 5.68106 9.92053 5.64487C10.0527 5.60868 10.1907 5.5993 10.3266 5.61728C10.5983 5.66972 10.844 5.81258 11.024 6.0226C11.2041 6.2326 11.3076 6.49739 11.3179 6.7738V10.4912L11.2353 10.5738ZM10.4919 9.7477H8.67447V10.4086C9.17012 10.326 9.33533 10.4912 9.66577 10.9042L9.9136 11.1521C9.98357 11.2045 10.0651 11.2394 10.1513 11.2537C10.2376 11.2681 10.3261 11.2616 10.4092 11.2347C10.4311 11.2347 10.4522 11.226 10.4677 11.2105C10.4832 11.195 10.4919 11.1739 10.4919 11.1521V9.7477ZM10.4092 8.17815H8.67447V8.92162H10.4092V8.17815Z" fill="white"/>
<path d="M5.36972 12.1438C5.36972 11.896 5.36972 11.8134 5.61754 11.896C5.83518 11.9554 6.03416 12.0692 6.1958 12.2265L6.52624 12.5569C6.6475 12.676 6.81064 12.7427 6.98059 12.7427C7.15053 12.7427 7.31368 12.676 7.43494 12.5569L7.68276 12.3091C7.92472 12.0783 8.24198 11.9429 8.57601 11.9277C8.91 11.9125 9.23828 12.0186 9.50015 12.2265L9.74798 12.4743C9.88511 12.5946 10.0612 12.6609 10.2436 12.6609C10.426 12.6609 10.6022 12.5946 10.7393 12.4743L11.0697 12.1438C11.3144 11.9435 11.6209 11.834 11.9371 11.834C12.2533 11.834 12.5598 11.9435 12.8045 12.1438L13.0523 12.3917C13.1783 12.4924 13.3173 12.5757 13.4654 12.6395C13.5082 12.6425 13.5486 12.6607 13.579 12.6911C13.6094 12.7215 13.6277 12.7619 13.6306 12.8047V13.0525C13.6306 13.2178 13.548 13.2178 13.4654 13.2178C13.1916 13.1789 12.9342 13.0645 12.7219 12.8873L12.3915 12.5569C12.2702 12.4379 12.107 12.3712 11.9371 12.3712C11.7672 12.3712 11.604 12.4379 11.4828 12.5569L11.1523 12.8873C10.9582 13.0438 10.7276 13.1485 10.482 13.1919C10.2364 13.2352 9.98399 13.2157 9.74798 13.1352C9.59119 13.0513 9.45117 12.9393 9.33494 12.8047L9.08711 12.5569C8.96584 12.4379 8.80269 12.3712 8.63276 12.3712C8.46284 12.3712 8.29968 12.4379 8.17841 12.5569L7.84798 12.8873C7.60327 13.0877 7.2968 13.197 6.98059 13.197C6.66438 13.197 6.35792 13.0877 6.1132 12.8873L5.86537 12.6395C5.73938 12.5389 5.60046 12.4555 5.45233 12.3917C5.40946 12.3888 5.36911 12.3704 5.33872 12.3401C5.30835 12.3097 5.29001 12.2693 5.28711 12.2265V12.1438H5.36972Z" fill="white"/>
</g>
<defs>
<clipPath id="clip0_13_104">
<rect width="19" height="19" fill="white"/>
</clipPath>
</defs>
</svg>
