<svg width="19" height="19" viewBox="0 0 19 19" fill="none" xmlns="http://www.w3.org/2000/svg">
<g clip-path="url(#clip0_13_253)">
<path d="M18 9.5C18 4.80558 14.1944 1 9.5 1C4.80558 1 1 4.80558 1 9.5C1 14.1944 4.80558 18 9.5 18C14.1944 18 18 14.1944 18 9.5Z" fill="white" stroke="white" stroke-width="2" stroke-linejoin="round"/>
<path d="M18 9.5C18 4.80558 14.1944 1 9.5 1C4.80558 1 1 4.80558 1 9.5C1 14.1944 4.80558 18 9.5 18C14.1944 18 18 14.1944 18 9.5Z" fill="#299091"/>
<path d="M7.32995 6.18999C6.72245 6.18999 6.22995 5.69749 6.22995 5.08999C6.22995 4.48249 6.72245 3.98999 7.32995 3.98999C7.93745 3.98999 8.42995 4.48249 8.42995 5.08999C8.42995 5.69749 7.93745 6.18999 7.32995 6.18999ZM14.2699 5.08999C14.2699 4.48249 13.7774 3.98999 13.1699 3.98999C12.5624 3.98999 12.0699 4.48249 12.0699 5.08999C12.0699 5.69749 12.5624 6.18999 13.1699 6.18999C13.7735 6.18999 14.2644 5.70359 14.2699 5.09999V5.08999ZM10.5099 8.92999L8.69995 7.11999C8.63055 7.04419 8.53275 7.00079 8.42995 6.99999H6.21995C6.12705 7.00079 6.03775 7.03649 5.96995 7.09999H5.99995L4.13995 8.92999C3.96905 9.05179 3.92925 9.28909 4.05105 9.45999C4.17285 9.63089 4.41015 9.67069 4.58105 9.54889C4.61545 9.52439 4.64545 9.49439 4.66995 9.45999L6.24995 7.87999L4.76995 12H6.22995V14.51C6.22445 14.5465 6.22445 14.5835 6.22995 14.62C6.26385 14.8271 6.45925 14.9675 6.66635 14.9336C6.82735 14.9072 6.95355 14.781 6.97995 14.62H6.99995V12H7.68995V14.63C7.72385 14.8371 7.91925 14.9775 8.12635 14.9436C8.28735 14.9172 8.41355 14.791 8.43995 14.63C8.44545 14.5935 8.44545 14.5565 8.43995 14.52V12H9.87995L8.40995 7.87999L9.99995 9.45999C10.0717 9.53829 10.1737 9.58209 10.2799 9.57999C10.4898 9.57999 10.6599 9.40989 10.6599 9.19999C10.6517 9.09239 10.5969 8.99379 10.5099 8.92999ZM12.6199 11V14.63C12.5864 14.8316 12.7227 15.0221 12.9243 15.0556C13.1259 15.0891 13.3164 14.9528 13.3499 14.7512C13.3566 14.7111 13.3566 14.6701 13.3499 14.63V11H14.9999V7.36999C14.9999 7.16569 14.8342 6.99999 14.6299 6.99999H11.7099C11.5056 6.99999 11.3399 7.16569 11.3399 7.36999V11H12.6199Z" fill="white"/>
</g>
<defs>
<clipPath id="clip0_13_253">
<rect width="19" height="19" fill="white"/>
</clipPath>
</defs>
</svg>
