<svg width="19" height="19" viewBox="0 0 19 19" fill="none" xmlns="http://www.w3.org/2000/svg">
<g clip-path="url(#clip0_13_277)">
<path d="M18 9.5C18 4.80558 14.1944 1 9.5 1C4.80558 1 1 4.80558 1 9.5C1 14.1944 4.80558 18 9.5 18C14.1944 18 18 14.1944 18 9.5Z" fill="white" stroke="white" stroke-width="2" stroke-linejoin="round"/>
<path d="M18 9.5C18 4.80558 14.1944 1 9.5 1C4.80558 1 1 4.80558 1 9.5C1 14.1944 4.80558 18 9.5 18C14.1944 18 18 14.1944 18 9.5Z" fill="#BA272A"/>
<path d="M9.50025 8.32C8.28545 8.3446 7.32065 9.3493 7.34525 10.5641C7.34665 10.6363 7.35175 10.7083 7.36025 10.78C6.92665 10.9258 6.51835 11.1384 6.15025 11.41C5.51885 11.8752 5.38425 12.7642 5.84945 13.3955C5.85305 13.4004 5.85665 13.4052 5.86025 13.41C6.34975 14.0143 7.22355 14.1367 7.86025 13.69C8.34145 13.3542 8.91345 13.1728 9.50025 13.17C10.0838 13.164 10.6556 13.3348 11.1402 13.66C11.7411 14.1553 12.6298 14.0696 13.125 13.4687C13.1301 13.4625 13.1352 13.4563 13.1402 13.45C13.6405 12.8972 13.598 12.0435 13.0452 11.5432C13.0086 11.51 12.9702 11.4789 12.9302 11.45L12.8502 11.41C12.4705 11.1575 12.0648 10.9463 11.6402 10.78C11.784 9.5735 10.9226 8.4789 9.71615 8.335C9.64445 8.3265 9.57245 8.3215 9.50025 8.32ZM5.63025 7.12C5.08915 7.3737 4.84605 8.0102 5.08025 8.56C5.12295 9.1531 5.63695 9.6001 6.23025 9.56C6.77135 9.3063 7.01445 8.6698 6.78025 8.12C6.73755 7.5269 6.22355 7.0799 5.63025 7.12ZM13.3702 7.12C13.9113 7.3737 14.1544 8.0102 13.9202 8.56C13.8775 9.1531 13.3635 9.6001 12.7702 9.56C12.2291 9.3063 11.986 8.6698 12.2202 8.12C12.2629 7.5269 12.7769 7.0799 13.3702 7.12ZM7.77025 5C7.25725 5.2045 7.00715 5.7862 7.21175 6.2992C7.21445 6.3062 7.21735 6.3131 7.22025 6.32C7.29945 6.9125 7.78395 7.3678 8.38025 7.41C8.89325 7.2055 9.14335 6.6238 8.93875 6.1108C8.93605 6.1038 8.93315 6.0969 8.93025 6.09C8.85105 5.4975 8.36655 5.0422 7.77025 5ZM11.2302 5C11.7432 5.2045 11.9933 5.7862 11.7887 6.2992C11.786 6.3062 11.7831 6.3131 11.7802 6.32C11.701 6.9125 11.2165 7.3678 10.6202 7.41C10.1072 7.2055 9.85715 6.6238 10.0617 6.1108C10.0644 6.1038 10.0673 6.0969 10.0702 6.09C10.1494 5.4975 10.6339 5.0422 11.2302 5Z" fill="white"/>
</g>
<defs>
<clipPath id="clip0_13_277">
<rect width="19" height="19" fill="white"/>
</clipPath>
</defs>
</svg>
