<svg width="19" height="19" viewBox="0 0 19 19" fill="none" xmlns="http://www.w3.org/2000/svg">
<g clip-path="url(#clip0_13_211)">
<path d="M18 9.5C18 4.80558 14.1944 1 9.5 1C4.80558 1 1 4.80558 1 9.5C1 14.1944 4.80558 18 9.5 18C14.1944 18 18 14.1944 18 9.5Z" fill="white" stroke="white" stroke-width="2" stroke-linejoin="round"/>
<path d="M18 9.5C18 4.80558 14.1944 1 9.5 1C4.80558 1 1 4.80558 1 9.5C1 14.1944 4.80558 18 9.5 18C14.1944 18 18 14.1944 18 9.5Z" fill="#598017"/>
<path d="M12 6C11.1 6 10.5 6.5 10.2 7.1C10.2 7.1 9.5 8 9 8H7C6.5 8 6 8.5 6 8.5L4 10.5V11H4.5L5.7 9.8L5.9 10C5.9 10 5 11.7 5 13C5 13.5 5.5 13.5 5.5 13.5H6C6 13.5 6.2 13.5 6 13.3L5.8 13.1C5.8 12.6 6.6 11.7 7 11.2C7 11.2 7 12 7 12.6C7 12.9 7.1111 13.5 7.4111 13.5H7.9111C7.9111 13.5 8.1111 13.5 7.9111 13.3L7.7111 13.1C7.5111 12.7 8.3 11.5 8.3 11.5H10.1L10.6 13C10.8 13.5 11.1 13.5 11.1 13.5H12.1C12.3 13.5 12.8 13.3 12.3 13L12.1 12.8V11C13.1 11 13.2 9.7 13.6 9.3L14.3 9.2C14.5 9.2 15.1 9 15.1 8.4V8L13.9 7C13.4 6.4 12.7 6 12 6Z" fill="white"/>
</g>
<defs>
<clipPath id="clip0_13_211">
<rect width="19" height="19" fill="white"/>
</clipPath>
</defs>
</svg>
